<?xml version="1.0" encoding="utf-8"?>
<svg version="1.1" xmlns:xlink="http://www.w3.org/1999/xlink" width="18px" height="17px" xmlns="http://www.w3.org/2000/svg">
  <g transform="matrix(1 0 0 1 -1602 -605 )">
    <path d="M 9.15413646134393 9.2659616796875  C 9.11601893740968 9.23016595703125  9.07563477014089 9.19660869140625  9.03013498238801 9.15657583984375  C 8.43379247877529 9.71623638671875  7.84335579841041 10.2701408398438  7.25318945538295 10.8243051171875  C 5.15841088330925 12.7912315429688  3.0595772308526 14.7542006445312  0.973802946622109 16.72994109375  C 0.687100212247109 17.0015169726562  0.204507178016618 16.9521504296875  0.0982231891257222 16.5596565429687  C 0.0436151282514448 16.3580132617187  0.129623857478324 16.202078984375  0.278122028540462 16.0630732226562  C 1.24933869445448 15.1538496679687  2.2185382248013 14.2426274804687  3.18825762057442 13.3319249414062  C 4.83032580834538 11.7898104882812  6.47229001083815 10.2475961132812  8.11444137463873 8.70556162109375  C 8.18329411804552 8.64090544921875  8.25356091492052 8.57764833984375  8.37130305726156 8.46958162109375  C 8.3008906769328 8.42613107421875  8.23166363123194 8.39755044921875  8.18136015850795 8.3503624609375  C 5.55528629425578 5.8867128125  2.93127116374639 3.42106451171875  0.305114123464595 0.95753478515625  C 0.154182936687139 0.81595078125  0.0462560942015897 0.66467333984375  0.0924421400830927 0.4532566796875  C 0.167159108562139 0.11120859375  0.586160583002168 -0.0330735937500002  0.872447396585983 0.185058515625  C 0.9570836501987 0.24955478515625  1.0316342666185 0.32646263671875  1.10917938267702 0.39929326171875  C 3.70389415643064 2.83574134765625  6.29838017070087 5.272409296875  8.89305336660043 7.70891734375  C 8.93587056990607 7.749130078125  8.98039299358743 7.7876639453125  9.0348762802565 7.83667072265625  C 9.08998341763006 7.7865247265625  9.14197130148121 7.7404759375  9.19252430229407 7.693008125  C 11.8173712540643 5.2281992578125  14.4424469449964 2.7635902734375  17.0659837879335 0.2974623046875  C 17.2192232365426 0.1534199609375  17.3777862558707 0.0388976171874997  17.6075934564668 0.0939203124999999  C 17.9727770727962 0.18134103515625  18.1078207844111 0.58846501953125  17.8568857139631 0.86165978515625  C 17.7375631457731 0.99157169921875  17.6010845714415 1.10699345703125  17.4718219291908 1.2284111328125  C 14.93337881819 3.61247474609375  12.3948525514812 5.9964583984375  9.85653421468569 8.3806619140625  C 9.81810477555997 8.41675744140625  9.78221235774928 8.4553312890625  9.72350763863801 8.5145711328125  C 9.79999219427384 8.5780480859375  9.87562416004335 8.63432994140625  9.94360350433526 8.69814666015625  C 12.5431011741329 11.1381723242188  15.1418917765535 13.5788975  17.7407655956467 16.019562734375  C 17.7752439599892 16.05194078125  17.8106373013006 16.0835393554688  17.8432024950325 16.1176562304688  C 18.0323135928468 16.3158018945313  18.0320432555094 16.5911551953125  17.8433896563403 16.7739312695313  C 17.6583128296604 16.9532496875  17.3587794865426 16.9629031445312  17.159291625271 16.7805068164063  C 16.7838559993678 16.43725953125  16.4162185580744 16.0861375976563  16.0455865968208 15.73805359375  C 13.7484296084718 13.5806763085938  11.4513974146496 11.4232190625  9.15413646134393 9.2659616796875  Z " fill-rule="nonzero" fill="#333333" stroke="none" transform="matrix(1 0 0 1 1602 605 )" />
  </g>
</svg>