<?xml version="1.0" encoding="utf-8"?>
<svg version="1.1" xmlns:xlink="http://www.w3.org/1999/xlink" width="25px" height="25px" xmlns="http://www.w3.org/2000/svg">
  <g transform="matrix(1 0 0 1 -59 -130 )">
    <path d="M 71.5 130  C 78.5 130  84 135.5  84 142.5  C 84 149.5  78.5 155  71.5 155  C 64.5 155  59 149.5  59 142.5  C 59 135.5  64.5 130  71.5 130  Z " fill-rule="nonzero" fill="#ffffff" stroke="none" />
    <path d="M 71.5 130.5  C 78.22 130.5  83.5 135.78  83.5 142.5  C 83.5 149.22  78.22 154.5  71.5 154.5  C 64.78 154.5  59.5 149.22  59.5 142.5  C 59.5 135.78  64.78 130.5  71.5 130.5  Z " stroke-width="1" stroke="#aaaaaa" fill="none" />
  </g>
</svg>