<?xml version="1.0" encoding="utf-8"?>
<svg version="1.1" xmlns:xlink="http://www.w3.org/1999/xlink" width="21px" height="20px" xmlns="http://www.w3.org/2000/svg">
  <g transform="matrix(1 0 0 1 -126 -214 )">
    <path d="M 20.5362541429924 9.47507731119791  L 16.750615530303 12.7006429036458  C 16.5122691761364 12.9316609700521  16.4034949100379 13.2644856770833  16.4597774621212 13.5906982421875  L 17.3536487926136 18.7718302408854  C 17.4235825047348 19.1823933919271  17.3537730823864 19.4766031901042  17.015166311553 19.7218424479167  C 16.8236150568182 19.8603312174479  16.5956676136364 19.9309488932292  16.3677616003788 19.9309488932292  C 16.1926994554924 19.9309488932292  16.0170780066288 19.8893432617188  15.8557705965909 19.8050537109375  L 11.0758759469697 17.2435913085937  C 10.7812677556818 17.089599609375  10.4293205492424 17.089599609375  10.1347330729167 17.2435913085937  L 5.55548354640151 19.8050944010417  C 5.18441642992424 19.9994099934896  4.73521247632575 19.9665730794271  4.39552852746212 19.7218831380208  C 4.05694247159091 19.4766438802083  3.7865293560606 19.1829427083333  3.85756096117424 18.7718709309896  L 4.95259528882576 13.4832153320312  C 5.00885712594697 13.1570231119792  4.9001035748106 12.8241577148438  4.66175722064394 12.5931599934896  L 0.674976325757573 9.47513834635417  C 0.373842921401512 9.1844482421875  0.266497987689391 8.74928792317708  0.395324337121209 8.35298665364583  C 0.525207149621209 7.9566650390625  0.869324100378785 7.66821289062499  1.28441051136363 7.60797119140625  L 6.47011126893939 6.70310465494792  C 6.79939630681818 6.65549723307292  7.08404060132576 6.44989013671875  7.23134469696969 6.15323893229166  L 9.61880622632576 1.14371744791667  C 9.80379083806818 0.76985677083333  10.186396188447 0.533365885416668  10.6059363162879 0.533365885416668  C 11.0254764441288 0.533365885416668  11.4069217566288 0.769836425781243  11.5930249763258 1.14371744791667  L 13.8868134469697 6.15311686197916  C 14.0341175426136 6.44984944661458  14.3188032670455 6.65553792317708  14.6481504498106 6.70314534505208  L 19.9274206912879 7.60799153645833  C 20.3414299242424 7.66764322916666  20.6865826231061 7.95668538411459  20.8154504024621 8.35300699869792  C 20.9448360558712 8.74930826822917  20.8358132102273 9.18446858723958  20.536357717803 9.47517903645833  Z " fill-rule="nonzero" fill="#f59a23" stroke="none" transform="matrix(1 0 0 1 126 214 )" />
  </g>
</svg>