<?xml version="1.0" encoding="utf-8"?>
<svg version="1.1" xmlns:xlink="http://www.w3.org/1999/xlink" width="21px" height="20px" xmlns="http://www.w3.org/2000/svg">
  <g transform="matrix(1 0 0 1 -228 -214 )">
    <path d="M 20.1970673532197 9.47306315104166  L 16.4114287405303 12.6986287434896  C 16.1730823863636 12.9296468098958  16.0643081202652 13.2624715169271  16.1205906723485 13.5886840820312  L 17.0144620028409 18.7698160807292  C 17.0843957149621 19.1803792317708  17.0145862926137 19.4745890299479  16.6759795217803 19.7198282877604  C 16.4844282670454 19.8583170572917  16.2564808238636 19.9289347330729  16.0285748106061 19.9289347330729  C 15.8535126657197 19.9289347330729  15.6778912168561 19.8873291015625  15.5165838068182 19.8030395507813  L 10.736689157197 17.2415771484375  C 10.4420809659091 17.0875854492188  10.0901337594697 17.0875854492188  9.79554628314395 17.2415771484375  L 5.21629675662879 19.8030802408854  C 4.84522964015153 19.9973958333333  4.39602568655302 19.9645589192708  4.05634173768938 19.7198689778646  C 3.71775568181818 19.4746297200521  3.44734256628786 19.1809285481771  3.51837417140151 18.7698567708333  L 4.61336706912876 13.481201171875  C 4.66962890624999 13.1550089518229  4.56087535511362 12.8221435546875  4.32252900094696 12.5911458333333  L 0.335748106060586 9.47312418619791  C 0.0346147017045165 9.18243408203125  -0.072730232007589 8.74727376302083  0.0560961174242219 8.3509521484375  C 0.186020359848473 7.95463053385417  0.5300958806818 7.66617838541666  0.945182291666658 7.60593668619792  L 6.13088304924241 6.70107014973958  C 6.4601680871212 6.65346272786458  6.74481238162877 6.44785563151041  6.89211647727271 6.15120442708333  L 9.27957800662876 1.14168294270833  C 9.4645626183712 0.767822265625  9.84716796874996 0.531331380208329  10.2667080965909 0.531331380208329  C 10.6862482244318 0.531331380208329  11.0676935369318 0.767801920572913  11.2537967566288 1.14168294270833  L 13.5475852272727 6.15108235677083  C 13.6948893229166 6.44781494140624  13.9795750473485 6.65350341796875  14.3089222301136 6.70111083984375  L 19.5881924715909 7.60595703125  C 20.0022017045454 7.66560872395833  20.3473544034091 7.95465087890625  20.4762221827651 8.35097249348959  C 20.6056078361742 8.74727376302083  20.4965849905303 9.18243408203125  20.197129498106 9.47314453125  Z " fill-rule="nonzero" fill="#f59a23" stroke="none" transform="matrix(1 0 0 1 228 214 )" />
  </g>
</svg>