<?xml version="1.0" encoding="utf-8"?>
<svg version="1.1" xmlns:xlink="http://www.w3.org/1999/xlink" width="21px" height="20px" xmlns="http://www.w3.org/2000/svg">
  <g transform="matrix(1 0 0 1 -543 -263 )">
    <path d="M 20.5949603456439 9.47306315104166  L 16.8093217329546 12.6986287434896  C 16.5709753787879 12.9296468098958  16.4622011126894 13.2624715169271  16.5184836647727 13.5886840820312  L 17.4123549952652 18.7698160807292  C 17.4822887073864 19.1803792317708  17.4124792850379 19.4745890299479  17.0738725142046 19.7198282877604  C 16.8823212594697 19.8583170572917  16.6543738162879 19.9289347330729  16.4264678030303 19.9289347330729  C 16.2514056581439 19.9289347330729  16.0757842092803 19.8873291015625  15.9144767992424 19.8030395507813  L 11.1345821496212 17.2415771484375  C 10.8399739583333 17.0875854492188  10.4880267518939 17.0875854492188  10.1934392755682 17.2415771484375  L 5.61418974905304 19.8030802408854  C 5.24312263257577 19.9973958333333  4.79391867897728 19.9645589192708  4.45423473011364 19.7198689778646  C 4.11564867424244 19.4746297200521  3.84523555871213 19.1809285481771  3.91626716382576 18.7698567708333  L 5.01126006155304 13.481201171875  C 5.06752189867424 13.1550089518229  4.95876834753788 12.8221435546875  4.72042199337122 12.5911458333333  L 0.733641098484862 9.47312418619791  C 0.432507694128802 9.18243408203125  0.325162760416678 8.74727376302083  0.453989109848498 8.3509521484375  C 0.58391335227274 7.95463053385417  0.927988873106076 7.66617838541666  1.34307528409093 7.60593668619792  L 6.52877604166667 6.70107014973958  C 6.85806107954546 6.65346272786458  7.14270537405303 6.44785563151041  7.29000946969696 6.15120442708333  L 9.67747099905302 1.14168294270833  C 9.86245561079546 0.767822265625  10.2450609611742 0.531331380208329  10.6645596590909 0.531331380208329  C 11.0840583570076 0.531331380208329  11.4655450994318 0.767801920572913  11.6516483191288 1.14168294270833  L 13.9454367897727 6.15108235677083  C 14.0927408854166 6.44781494140624  14.3774266098485 6.65350341796875  14.7067737926136 6.70111083984375  L 19.9860440340909 7.60595703125  C 20.4000532670454 7.66560872395833  20.7452059659091 7.95465087890625  20.8740737452651 8.35097249348959  C 21.0034593986742 8.74727376302083  20.8944365530303 9.18243408203125  20.594981060606 9.47314453125  Z " fill-rule="nonzero" fill="#d7d7d7" stroke="none" transform="matrix(1 0 0 1 543 263 )" />
  </g>
</svg>