<?xml version="1.0" encoding="utf-8"?>
<svg version="1.1" xmlns:xlink="http://www.w3.org/1999/xlink" width="21px" height="20px" xmlns="http://www.w3.org/2000/svg">
  <g transform="matrix(1 0 0 1 -519 -328 )">
    <path d="M 20.3564689867424 9.47306315104166  L 16.570830374053 12.6986287434896  C 16.3324840198864 12.9296468098958  16.2237097537879 13.2624715169271  16.2799923058712 13.5886840820312  L 17.1738636363636 18.7698160807292  C 17.2437973484849 19.1803792317708  17.1739879261364 19.4745890299479  16.835381155303 19.7198282877604  C 16.6438299005682 19.8583170572917  16.4158824573864 19.9289347330729  16.1879764441288 19.9289347330729  C 16.0129142992424 19.9289347330729  15.8372928503788 19.8873291015625  15.6759854403409 19.8030395507813  L 10.8960907907197 17.2415771484375  C 10.6014825994318 17.0875854492188  10.2495353929924 17.0875854492188  9.95494791666667 17.2415771484375  L 5.37569839015151 19.8030802408854  C 5.00463127367425 19.9973958333333  4.55542732007576 19.9645589192708  4.21574337121212 19.7198689778646  C 3.87715731534091 19.4746297200521  3.6067441998106 19.1809285481771  3.67777580492424 18.7698567708333  L 4.77276870265152 13.481201171875  C 4.82903053977273 13.1550089518229  4.72027698863637 12.8221435546875  4.48193063446971 12.5911458333333  L 0.49514973958334 9.47312418619791  C 0.194016335227289 9.18243408203125  0.0866714015151563 8.74727376302083  0.215497750946976 8.3509521484375  C 0.345421993371218 7.95463053385417  0.689497514204555 7.66617838541666  1.1045839251894 7.60593668619792  L 6.29028468276516 6.70107014973958  C 6.61956972064395 6.65346272786458  6.90421401515153 6.44785563151041  7.05151811079546 6.15120442708333  L 9.43897964015153 1.14168294270833  C 9.62396425189394 0.767822265625  10.0065696022727 0.531331380208329  10.4260683001894 0.531331380208329  C 10.8455669981061 0.531331380208329  11.2270537405303 0.767801920572913  11.4131569602273 1.14168294270833  L 13.7069454308712 6.15108235677083  C 13.8542495265151 6.44781494140624  14.138935250947 6.65350341796875  14.4682824337121 6.70111083984375  L 19.7475526751894 7.60595703125  C 20.1615619081439 7.66560872395833  20.5067146070076 7.95465087890625  20.6355823863636 8.35097249348959  C 20.7649680397727 8.74727376302083  20.6559451941288 9.18243408203125  20.3564897017046 9.47314453125  Z " fill-rule="nonzero" fill="#d7d7d7" stroke="none" transform="matrix(1 0 0 1 519 328 )" />
  </g>
</svg>