<?xml version="1.0" encoding="utf-8"?>
<svg version="1.1" xmlns:xlink="http://www.w3.org/1999/xlink" width="22px" height="20px" xmlns="http://www.w3.org/2000/svg">
  <g transform="matrix(1 0 0 1 -498 -392 )">
    <path d="M 21.1031747855392 9.47306315104166  L 17.2539119944853 12.6986287434896  C 17.0115598192402 12.9296468098958  16.9009574142157 13.2624715169271  16.9581858915441 13.5886840820312  L 17.8670802696078 18.7698160807292  C 17.9381893382353 19.1803792317708  17.8672066482843 19.4745890299479  17.5229090073529 19.7198282877604  C 17.3280962775735 19.8583170572917  17.096359911152 19.9289347330729  16.8646235447304 19.9289347330729  C 16.6866191789216 19.9289347330729  16.5080461090686 19.8873291015625  16.3440276501226 19.8030395507813  L 11.4837986366422 17.2415771484375  C 11.1842390471814 17.0875854492188  10.8263767616422 17.0875854492188  10.5268382352941 17.2415771484375  L 5.87062653186275 19.8030802408854  C 5.4933229932598 19.9973958333333  5.03656939338236 19.9645589192708  4.69117647058824 19.7198689778646  C 4.34689989276961 19.4746297200521  4.0719420189951 19.1809285481771  4.14416743259804 18.7698567708333  L 5.25760569852941 13.481201171875  C 5.31481311274509 13.1550089518229  5.20423177083333 12.8221435546875  4.96187959558824 12.5911458333333  L 0.908093979779411 9.47312418619791  C 0.601899509803921 9.18243408203125  0.492750459558821 8.74727376302083  0.623741957720587 8.3509521484375  C 0.755807674632352 7.95463053385417  1.10570810355392 7.66617838541666  1.5277707567402 7.60593668619792  L 6.80062614889706 6.70107014973958  C 7.13544538909314 6.65346272786458  7.42487362132353 6.44785563151041  7.57465341605392 6.15120442708333  L 10.0022403492647 1.14168294270833  C 10.1903339460784 0.767822265625  10.5793696384804 0.531331380208329  11.0059187346814 0.531331380208329  C 11.4324678308824 0.531331380208329  11.8203661151961 0.767801920572913  12.009597120098 1.14168294270833  L 14.3419366574755 6.15108235677083  C 14.4917164522059 6.44781494140624  14.7811868106618 6.65350341796875  15.1160692401961 6.70111083984375  L 20.4840667126226 7.60595703125  C 20.9050340839461 7.66560872395833  21.2559876685049 7.95465087890625  21.3870212928922 8.35097249348959  C 21.518581495098 8.74727376302083  21.4077263327206 9.18243408203125  21.1032379748775 9.47314453125  Z " fill-rule="nonzero" fill="#d7d7d7" stroke="none" transform="matrix(1 0 0 1 498 392 )" />
  </g>
</svg>