<?xml version="1.0" encoding="utf-8"?>
<svg version="1.1" xmlns:xlink="http://www.w3.org/1999/xlink" width="54px" height="50px" xmlns="http://www.w3.org/2000/svg">
  <g transform="matrix(1 0 0 1 -543 -26 )">
    <path d="M 51.1559296875 13.2018053209459  C 42.722279296875 18.2611380912162  23.10598828125 30.0188450168919  20.5780078125 31.4216638513514  C 17.347236328125 33.2174831081081  16.8680390625 30.4135346283784  16.8680390625 30.4135346283784  L 12.81898828125 20.9927681587838  C 11.26100390625 16.5161528716216  14.16740625 18.9743454391892  14.16740625 18.9743454391892  C 14.16740625 18.9743454391892  16.661162109375 20.8553631756757  18.553798828125 22.0015308277027  C 20.445380859375 23.1477512668919  22.601583984375 22.3380489864865  22.601583984375 22.3380489864865  L 49.072341796875 10.155933277027  C 44.188611328125 4.09697001689189  36.121095703125 0.135135135135135  26.98766015625 0.135135135135135  C 12.08197265625 0.135135135135135  0 10.6784206081081  0 23.6850190033784  C 0 31.1662795608108  4.00074609375 37.8248521959459  10.232314453125 42.1405194256757  L 9.108544921875 48.5815561655405  C 9.108544921875 48.5815561655405  8.5606875 50.4619404560811  10.4593359375 49.5897909628378  C 11.75312109375 48.9951435810811  15.05133984375 46.8641786317568  17.01474609375 45.5673036317568  C 20.1012890625 46.6397276182432  23.464001953125 47.2352195945946  26.98913671875 47.2352195945946  C 41.89355859375 47.2352195945946  53.9780625 36.6918813344595  53.9780625 23.6850717905405  C 53.9780625 19.9177048141892  52.95976171875 16.3598500844595  51.1559296875 13.2018053209459  Z " fill-rule="nonzero" fill="#f2f2f2" stroke="none" transform="matrix(1 0 0 1 543 26 )" />
  </g>
</svg>