<?xml version="1.0" encoding="utf-8"?>
<svg version="1.1" xmlns:xlink="http://www.w3.org/1999/xlink" width="29px" height="5px" xmlns="http://www.w3.org/2000/svg">
  <g transform="matrix(1 0 0 1 -556 -113 )">
    <path d="M 5.06488372093023 2.5  C 5.06488372093023 1.14333333333333  3.95546511627907 0.0466666666666669  2.58302325581395 0.0466666666666669  C 1.21058139534884 0.0466666666666669  0.101162790697675 1.14666666666667  0.101162790697675 2.5  C 0.101162790697675 3.85666666666666  1.21395348837209 4.95333333333333  2.58302325581395 4.95333333333333  C 3.95546511627907 4.95333333333333  5.06488372093023 3.85333333333333  5.06488372093023 2.5  Z M 16.9818604651163 2.5  C 16.9818604651163 1.14333333333333  15.8724418604651 0.0466666666666669  14.5 0.0466666666666669  C 13.1275581395349 0.0466666666666669  12.0181395348837 1.14666666666667  12.0181395348837 2.5  C 12.0181395348837 3.85666666666666  13.1309302325581 4.95333333333333  14.5 4.95333333333333  C 15.8724418604651 4.95333333333333  16.9818604651163 3.85333333333333  16.9818604651163 2.5  Z M 28.8988372093023 2.5  C 28.8988372093023 1.14333333333333  27.7860465116279 0.0466666666666669  26.416976744186 0.0466666666666669  C 25.0445348837209 0.0466666666666669  23.9351162790698 1.14666666666667  23.9351162790698 2.5  C 23.9351162790698 3.85666666666666  25.0479069767442 4.95333333333333  26.416976744186 4.95333333333333  C 27.7894186046512 4.95333333333333  28.8988372093023 3.85333333333333  28.8988372093023 2.5  Z " fill-rule="nonzero" fill="#555555" stroke="none" transform="matrix(1 0 0 1 556 113 )" />
  </g>
</svg>