<?xml version="1.0" encoding="utf-8"?>
<svg version="1.1" xmlns:xlink="http://www.w3.org/1999/xlink" width="8px" height="8px" xmlns="http://www.w3.org/2000/svg">
  <g transform="matrix(1 0 0 1 -449 -176 )">
    <path d="M 4.06850509393064 4.36045255514706  C 4.05156397218208 4.34360750919118  4.03361545339595 4.32781585477941  4.01339332550578 4.30897686580882  C 3.74835221278902 4.57234653492647  3.48593591040462 4.83300745404412  3.22363975794798 5.09379064338235  C 2.29262705924855 6.01940307904412  1.35981210260116 6.94315324448529  0.432801309609826 7.87291345588235  C 0.305377872109826 8.00071386948529  0.090892079118497 7.97748255514706  0.0436547507225432 7.79277954963235  C 0.0193845014450866 7.69788859375  0.0576106033236993 7.62450775735294  0.123609790462428 7.55909328125  C 0.555261641979769 7.13122337316176  0.986016988800578 6.70241293198529  1.41700338692197 6.27384703125  C 2.14681147037572 5.54814611213235  2.87657333815029 4.82239817095588  3.60641838872832 4.09673488051471  C 3.63701960802023 4.06630844669118  3.66824929552023 4.03654039522059  3.72057913656069 3.98568546875  C 3.68928474530347 3.96523815257353  3.65851716943642 3.95178844669118  3.63616007044798 3.92958233455882  C 2.46901613078035 2.77021779411765  1.30278718388728 1.60991271139706  0.135606277095376 0.450604604779412  C 0.0685257496387283 0.383976838235294  0.0205582640895954 0.312787454044118  0.0410853955924856 0.213297261029412  C 0.0742929371387284 0.0523334558823529  0.26051581466763 -0.0155640441176471  0.387754398482659 0.0870863602941176  C 0.425370511199422 0.117437545955882  0.45850411849711 0.153629476102941  0.492968614523122 0.187902711397059  C 1.64617518063584 1.33446651654412  2.79928007586705 2.48113378676471  3.95246816293353 3.62772580882353  C 3.97149803106936 3.64664944852941  3.99128577492775 3.66478303308824  4.01550056900289 3.68784504595588  C 4.0399926300578 3.66424693014706  4.06309835621387 3.64257691176471  4.08556635657514 3.62023911764706  C 5.25216500180636 2.4603290625  6.41886530888728 1.30051306985294  7.58488168352601 0.139982261029412  C 7.65298810513006 0.0721976286764705  7.72346055816474 0.0183047610294116  7.82559709176301 0.044197794117647  C 7.98790092124277 0.0853369577205882  8.04792034862717 0.276924715073529  7.93639365065029 0.405486957720588  C 7.88336139812139 0.466621976102941  7.82270425397399 0.52093809742647  7.76525419075144 0.578075827205882  C 6.6370572525289 1.69998811580882  5.50882335621387 2.82186277573529  4.38068187319364 3.94384090073529  C 4.3636021224711 3.96082703125  4.34764993677746 3.97897943014706  4.32155895050578 4.00685700367647  C 4.35555208634393 4.03672851102941  4.3891662933526 4.06321409007353  4.41937933526012 4.09324548713235  C 5.57471163294798 5.24149285845588  6.72972967846821 6.39006941176471  7.8847847091763 7.53861775735294  C 7.90010842666185 7.55385448529412  7.91583880057803 7.56872440257353  7.93031222001445 7.58477940257353  C 8.01436159682081 7.67802442095588  8.01424144689306 7.80760244485294  7.93039540281792 7.89361471507353  C 7.84813903540462 7.97799985294118  7.71501310513006 7.98254265625  7.62635183345376 7.89670909007353  C 7.45949155527457 7.73518095588235  7.29609713692196 7.56994710477941  7.13137182080925 7.40614286764706  C 6.11041315932081 6.39090649816177  5.08950996206647 5.3756325  4.06850509393064 4.36045255514706  Z " fill-rule="nonzero" fill="#333333" stroke="none" transform="matrix(1 0 0 1 449 176 )" />
  </g>
</svg>