<?xml version="1.0" encoding="utf-8"?>
<svg version="1.1" xmlns:xlink="http://www.w3.org/1999/xlink" width="12px" height="15px" xmlns="http://www.w3.org/2000/svg">
  <g transform="matrix(1 0 0 1 -516 -228 )">
    <path d="M 5.98823529411765 6.14391891891892  L 10.0070588235294 0.0121621621621619  L 11.9694117647059 0.0121621621621619  L 7.05411764705882 7.5  L 11.2682352941176 7.5  L 11.2682352941176 8.68986486486486  L 6.83529411764706 8.68986486486486  L 6.83529411764706 10.2547297297297  L 11.2658823529412 10.2547297297297  L 11.2658823529412 11.4648648648649  L 6.83529411764706 11.4648648648649  L 6.83529411764706 14.9898648648649  L 5.14117647058823 14.9898648648649  L 5.14117647058823 11.4628378378378  L 0.757647058823529 11.4628378378378  L 0.757647058823529 10.2527027027027  L 5.14117647058824 10.2527027027027  L 5.14117647058824 8.68783783783784  L 0.757647058823529 8.68783783783784  L 0.757647058823529 7.5  L 4.92235294117647 7.5  L 0.0305882352941174 0.0121621621621619  L 2.01647058823529 0.0121621621621619  L 5.98823529411765 6.14391891891892  Z " fill-rule="nonzero" fill="#333333" stroke="none" transform="matrix(1 0 0 1 516 228 )" />
  </g>
</svg>