<?xml version="1.0" encoding="utf-8"?>
<svg version="1.1" xmlns:xlink="http://www.w3.org/1999/xlink" width="9px" height="8px" xmlns="http://www.w3.org/2000/svg">
  <g transform="matrix(1 0 0 1 -638 -279 )">
    <path d="M 8.94754464285714 2.671875  C 8.96149553571428 2.6499451754386  8.96986607142857 2.62527412280702  8.96986607142857 2.59786184210526  C 8.96986607142857 2.57593201754386  8.96428571428572 2.55537280701754  8.95731026785714 2.53618421052632  C 8.94893973214286 2.48547149122807  8.93359375 2.43612938596491  8.90290178571429 2.39226973684211  L 7.38922991071429 0.225328947368421  C 7.31947544642857 0.126644736842105  7.20368303571429 0.0663377192982456  7.07952008928571 0.0663377192982456  L 1.96930803571429 0.0663377192982456  C 1.84514508928571 0.0663377192982456  1.72935267857143 0.125274122807018  1.65959821428571 0.225328947368421  L 0.145926339285714 2.39226973684211  C 0.130580357142857 2.41282894736842  0.123604910714286 2.4375  0.113839285714286 2.4594298245614  C 0.0705915178571428 2.49232456140351  0.0412946428571429 2.54029605263158  0.0412946428571429 2.59786184210526  C 0.0412946428571429 2.65953947368421  0.076171875 2.71162280701754  0.125 2.74314692982456  C 0.136160714285714 2.76507675438596  0.145926339285714 2.78837719298246  0.162667410714286 2.80893640350877  L 4.23074776785714 7.79660087719298  C 4.28655133928571 7.86513157894737  4.36467633928571 7.90899122807018  4.451171875 7.92543859649123  C 4.45954241071429 7.92955043859649  4.46651785714286 7.93229166666667  4.47488839285714 7.93503289473684  C 4.47767857142857 7.93640350877193  4.47907366071429 7.93777412280702  4.48186383928571 7.93777412280702  C 4.49581473214286 7.9405153508772  4.509765625 7.94188596491228  4.52232142857143 7.94188596491228  C 4.53627232142857 7.94188596491228  4.55022321428571 7.94051535087719  4.56417410714286 7.93640350877193  C 4.56696428571429 7.93640350877193  4.568359375 7.93366228070175  4.57114955357143 7.93366228070175  C 4.57952008928572 7.93092105263158  4.587890625 7.9281798245614  4.59486607142857 7.92406798245614  C 4.68136160714286 7.90762061403509  4.75948660714286 7.86376096491228  4.81529017857143 7.79523026315789  L 8.88337053571428 2.80756578947368  C 8.91685267857143 2.76644736842105  8.93498883928572 2.71984649122807  8.94754464285714 2.671875  Z M 5.48214285714286 2.42105263157895  L 3.55552455357143 2.42105263157895  L 4.52371651785714 0.62280701754386  L 5.48214285714286 2.42105263157895  Z M 3.48577008928571 2.77467105263158  L 5.55050223214286 2.77467105263158  L 4.52371651785714 7.00849780701754  L 3.48577008928571 2.77467105263158  Z M 0.595145089285713 2.77467105263158  L 3.11467633928571 2.77467105263158  L 4.19866071428571 7.1921600877193  L 0.595145089285713 2.77467105263158  Z M 4.84737723214286 7.19490131578947  L 5.92020089285714 2.77467105263158  L 8.45368303571429 2.77467105263158  L 4.84737723214286 7.19490131578947  Z M 7.07952008928571 0.419956140350877  C 7.08649553571429 0.419956140350877  7.09207589285714 0.422697368421053  7.09347098214286 0.425438596491228  L 8.48716517857143 2.42105263157895  L 5.88671875 2.42105263157895  L 4.82087053571429 0.419956140350877  L 7.07952008928571 0.419956140350877  Z M 0.561662946428571 2.42105263157895  L 1.95535714285714 0.425438596491228  C 1.95675223214286 0.422697368421053  1.96233258928571 0.419956140350877  1.96930803571429 0.419956140350877  L 4.2265625 0.419956140350877  L 3.14955357142857 2.42105263157895  L 0.561662946428571 2.42105263157895  Z " fill-rule="nonzero" fill="#403f41" stroke="none" transform="matrix(1 0 0 1 638 279 )" />
  </g>
</svg>