<?xml version="1.0" encoding="utf-8"?>
<svg version="1.1" xmlns:xlink="http://www.w3.org/1999/xlink" width="40px" height="40px" xmlns="http://www.w3.org/2000/svg">
  <g transform="matrix(1 0 0 1 -534 -539 )">
    <path d="M 39.9990154005029 19.9748676364943  C 39.9990154454023 8.95498280352011  31.0656239224138 0.0215913254310341  20.0457390894397 0.0215913254310341  C 9.02585425646551 0.0215913254310341  0.0924628232758614 8.95498275862069  0.0924628232758614 19.9748676364943  C 0.0924628232758614 30.9947525143678  9.02585425646552 39.928143902658  20.0457390894397 39.928143902658  C 31.0656239224138 39.928143902658  39.9990153556034 30.9947524694684  39.9990154005029 19.9748676364943  Z M 22.5430344378592 19.9748676364943  L 31.4370962194684 28.868883441092  L 28.9398468480603 31.3661328573994  L 20.0457390894397 22.4721170079023  L 11.1517232848419 31.3661787895115  L 8.65447386853448 28.868929373204  L 17.5485356501437 19.9748676364943  L 8.65442793642241 11.0808058548851  L 11.1516773078305 8.58355643857758  L 20.0457390894397 17.4776182201868  L 28.9398008710489 8.58355643857759  L 31.4370502873563 11.0808058548851  L 22.5430344378592 19.9748676364943  Z " fill-rule="nonzero" fill="#000000" stroke="none" transform="matrix(1 0 0 1 534 539 )" />
  </g>
</svg>