<?xml version="1.0" encoding="utf-8"?>
<svg version="1.1" xmlns:xlink="http://www.w3.org/1999/xlink" width="91px" height="60px" xmlns="http://www.w3.org/2000/svg">
  <g transform="matrix(1 0 0 1 -16 -69 )">
    <path d="M 16 69  L 107 69  L 107 129  L 16 129  L 16 69  " fill-rule="nonzero" fill="#cccccc" stroke="none" />
    <path d="M 20 73  L 103 73  L 103 125  L 20 125  L 20 73  " fill-rule="nonzero" fill="#ffffff" stroke="none" />
    <path d="M 67.82 87  C 65.3 87  63.32 85.02  63.32 82.5  C 63.32 79.98  65.3 78  67.82 78  C 70.34 78  72.32 79.98  72.32 82.5  C 72.32 85.02  70.34 87  67.82 87  " fill-rule="nonzero" fill="#cccccc" stroke="none" />
    <path d="M 22 124  L 22 97.05  L 42 84.8  L 70 104.615384615385  L 86 92.15  L 102 104.615384615385  L 102 124  L 22 124  " fill-rule="nonzero" fill="#169bd5" stroke="none" />
  </g>
</svg>