<?xml version="1.0" encoding="utf-8"?>
<svg version="1.1" xmlns:xlink="http://www.w3.org/1999/xlink" width="12px" height="12px" viewBox="349 263  12 12" xmlns="http://www.w3.org/2000/svg">
  <path d="M 355 263  C 358.36 263  361 265.64  361 269  C 361 272.36  358.36 275  355 275  C 351.64 275  349 272.36  349 269  C 349 265.64  351.64 263  355 263  Z " fill-rule="nonzero" fill="#ffffff" stroke="none" />
  <path d="M 355 263.5  C 358.08 263.5  360.5 265.92  360.5 269  C 360.5 272.08  358.08 274.5  355 274.5  C 351.92 274.5  349.5 272.08  349.5 269  C 349.5 265.92  351.92 263.5  355 263.5  Z " stroke-width="1" stroke="#797979" fill="none" />
  <path d="M 355 272  C 353.32 272  352 270.68  352 269  C 352 267.32  353.32 266  355 266  C 356.68 266  358 267.32  358 269  C 358 270.68  356.68 272  355 272  " fill-rule="nonzero" fill="#797979" stroke="none" />
</svg>