<?xml version="1.0" encoding="utf-8"?>
<svg version="1.1" xmlns:xlink="http://www.w3.org/1999/xlink" width="12px" height="12px" viewBox="348 355  12 12" xmlns="http://www.w3.org/2000/svg">
  <path d="M 354 355  C 357.36 355  360 357.64  360 361  C 360 364.36  357.36 367  354 367  C 350.64 367  348 364.36  348 361  C 348 357.64  350.64 355  354 355  Z " fill-rule="nonzero" fill="#ffffff" stroke="none" />
  <path d="M 354 355.5  C 357.08 355.5  359.5 357.92  359.5 361  C 359.5 364.08  357.08 366.5  354 366.5  C 350.92 366.5  348.5 364.08  348.5 361  C 348.5 357.92  350.92 355.5  354 355.5  Z " stroke-width="1" stroke="#aaaaaa" fill="none" />
  <path d="M 354 364  C 352.32 364  351 362.68  351 361  C 351 359.32  352.32 358  354 358  C 355.68 358  357 359.32  357 361  C 357 362.68  355.68 364  354 364  " fill-rule="nonzero" fill="#aaaaaa" stroke="none" />
</svg>