<?xml version="1.0" encoding="utf-8"?>
<svg version="1.1" xmlns:xlink="http://www.w3.org/1999/xlink" width="40px" height="20px" xmlns="http://www.w3.org/2000/svg">
  <defs>
    <mask fill="white" id="clip65">
      <path d="M 0 14.4444444444444  L 0 5.55555555555556  C 0 2.44444444444443  2.20000000000005 0  5 0  L 20.5 0  L 20.75 0  L 23.25 0  L 35 0  C 37.8 0  40 2.44444444444443  40 5.55555555555556  L 40 14.4444444444444  C 40 17.5555555555556  37.8 20  35 20  L 28.25 20  L 5 20  C 2.20000000000005 20  0 17.5555555555556  0 14.4444444444444  Z " fill-rule="evenodd" />
    </mask>
  </defs>
  <g transform="matrix(1 0 0 1 -1241 -345 )">
    <path d="M 0 14.4444444444444  L 0 5.55555555555556  C 0 2.44444444444443  2.20000000000005 0  5 0  L 20.5 0  L 20.75 0  L 23.25 0  L 35 0  C 37.8 0  40 2.44444444444443  40 5.55555555555556  L 40 14.4444444444444  C 40 17.5555555555556  37.8 20  35 20  L 28.25 20  L 5 20  C 2.20000000000005 20  0 17.5555555555556  0 14.4444444444444  Z " fill-rule="nonzero" fill="#ffffff" stroke="none" transform="matrix(1 0 0 1 1241 345 )" />
    <path d="M 0 14.4444444444444  L 0 5.55555555555556  C 0 2.44444444444443  2.20000000000005 0  5 0  L 20.5 0  L 20.75 0  L 23.25 0  L 35 0  C 37.8 0  40 2.44444444444443  40 5.55555555555556  L 40 14.4444444444444  C 40 17.5555555555556  37.8 20  35 20  L 28.25 20  L 5 20  C 2.20000000000005 20  0 17.5555555555556  0 14.4444444444444  Z " stroke-width="2" stroke="#797979" fill="none" transform="matrix(1 0 0 1 1241 345 )" mask="url(#clip65)" />
  </g>
</svg>