<?xml version="1.0" encoding="utf-8"?>
<svg version="1.1" xmlns:xlink="http://www.w3.org/1999/xlink" width="1039px" height="597px" xmlns="http://www.w3.org/2000/svg">
  <defs>
    <mask fill="white" id="clip111">
      <path d="M 0 597  L 0 8.63826366559485  L 0 0  L 34.9439461883408 0  L 1039 0  L 1039 597  L 0 597  Z " fill-rule="evenodd" />
    </mask>
  </defs>
  <g transform="matrix(1 0 0 1 -241 -147 )">
    <path d="M 0 597  L 0 8.63826366559485  L 0 0  L 34.9439461883408 0  L 1039 0  L 1039 597  L 0 597  Z " fill-rule="nonzero" fill="#ffffff" stroke="none" transform="matrix(1 0 0 1 241 147 )" />
    <path d="M 0 597  L 0 8.63826366559485  L 0 0  L 34.9439461883408 0  L 1039 0  L 1039 597  L 0 597  Z " stroke-width="2" stroke="#000000" fill="none" transform="matrix(1 0 0 1 241 147 )" mask="url(#clip111)" />
  </g>
</svg>