<?xml version="1.0" encoding="utf-8"?>
<svg version="1.1" xmlns:xlink="http://www.w3.org/1999/xlink" width="120px" height="120px" xmlns="http://www.w3.org/2000/svg">
  <g transform="matrix(1 0 0 1 -573 -374 )">
    <path d="M 573 374  L 693 374  L 693 494  L 573 494  L 573 374  " fill-rule="nonzero" fill="#cccccc" stroke="none" />
    <path d="M 581 382  L 685 382  L 685 486  L 581 486  L 581 382  " fill-rule="nonzero" fill="#ffffff" stroke="none" />
    <path d="M 644.4 410  C 639.36 410  635.4 406.04  635.4 401  C 635.4 395.96  639.36 392  644.4 392  C 649.44 392  653.4 395.96  653.4 401  C 653.4 406.04  649.44 410  644.4 410  " fill-rule="nonzero" fill="#cccccc" stroke="none" />
    <path d="M 584 483  L 584 429.1  L 608.5 404.6  L 642.8 424.2  L 662.4 419.3  L 682 424.2  L 682 483  L 584 483  " fill-rule="nonzero" fill="#169bd5" stroke="none" />
  </g>
</svg>