<?xml version="1.0" encoding="utf-8"?>
<svg version="1.1" xmlns:xlink="http://www.w3.org/1999/xlink" width="25px" height="25px" xmlns="http://www.w3.org/2000/svg">
  <g transform="matrix(1 0 0 1 -15 -369 )">
    <path d="M 27.5 369  C 34.5 369  40 374.5  40 381.5  C 40 388.5  34.5 394  27.5 394  C 20.5 394  15 388.5  15 381.5  C 15 374.5  20.5 369  27.5 369  Z " fill-rule="nonzero" fill="#ffffff" stroke="none" />
    <path d="M 27.5 369.5  C 34.22 369.5  39.5 374.78  39.5 381.5  C 39.5 388.22  34.22 393.5  27.5 393.5  C 20.78 393.5  15.5 388.22  15.5 381.5  C 15.5 374.78  20.78 369.5  27.5 369.5  Z " stroke-width="1" stroke="#797979" fill="none" />
  </g>
</svg>