<?xml version="1.0" encoding="utf-8"?>
<svg version="1.1" xmlns:xlink="http://www.w3.org/1999/xlink" width="18px" height="20px" xmlns="http://www.w3.org/2000/svg">
  <g transform="matrix(1 0 0 1 -25 -765 )">
    <path d="M 17.1295475297408 4.0775636328125  L 14.2856962846236 0.8775636328125  C 13.2415847234553 -0.2922363671875  11.5379070356889 -0.2922363671875  10.4787706520774 0.8775636328125  L 0.586469011896307 11.9834545507813  C 0.271580573064631 12.3368181835937  0.0767789328835228 12.8246181835937  0.0766301580255681 13.3634181835937  L 0.0766301580255681 18.4622363671875  C 0.0766301580255681 19.4844  0.550524782492898 20  1.45052480246804 20  L 6.03671280628551 19.9723636328125  C 6.51765496049361 19.9697454492187  6.95222106711648 19.7494545507812  7.2663471147017 19.395  L 17.1309421542081 8.32289091796875  C 17.6201218971946 7.78216365234375  17.9231652965199 7.0312  17.9231652965199 6.20098181640625  C 17.9231652965199 5.37  17.6196012451172 4.6184363671875  17.1299380237926 4.07794544921875  Z M 6.4775640514027 18.7283090820312  L 6.33267148215554 18.8188  L 1.14729545454545 18.8037454492187  L 1.10837602761008 13.0366  C 1.10837602761008 12.9427818164062  1.21436776677912 12.8390909179687  1.21436776677912 12.8390909179687  L 6.4775640514027 18.7283090820312  Z M 7.16961571155895 18.0218  L 1.85649173916903 12.089872734375  L 8.73429545454545 4.3794  L 14.0135950395064 10.2941636328125  L 7.16961571155895 18.0218181835938  Z M 16.446365711559 7.56014544921875  L 16.4458264426492 7.56138181640625  L 14.7552954545455 9.45870908203125  L 9.47733470348011 3.54394544921875  L 11.1775351185192 1.6388  C 11.6997210671165 1.05374544921875  13.0827458695845 1.05525455078125  13.6033140514027 1.64029091796875  L 16.4477045454545 4.84058181640625  C 16.9698904940518 5.42861818359375  16.96829132413 6.9736  16.446365711559 7.56014544921875  Z " fill-rule="nonzero" fill="#555555" stroke="none" transform="matrix(1 0 0 1 25 765 )" />
  </g>
</svg>