<?xml version="1.0" encoding="utf-8"?>
<svg version="1.1" xmlns:xlink="http://www.w3.org/1999/xlink" width="50px" height="50px" xmlns="http://www.w3.org/2000/svg">
  <g transform="matrix(1 0 0 1 -163 -127 )">
    <path d="M 49.9772727050781 25  C 49.9772727050781 38.6590909179688  38.6590909179688 49.9772727050781  25 49.9772727050781  C 11.3409090820313 49.9772727050781  0.022727294921875 38.6590909179688  0.022727294921875 25  C 0.022727294921875 11.3409090820312  11.3409090820313 0.022727294921875  25 0.022727294921875  C 38.6590909179688 0.022727294921875  49.9772727050781 11.3409090820313  49.9772727050781 25  Z M 25.0363939766866 3.14542418737593  C 25.0242626447957 3.14542418737593  25.0121313150136 3.14543430525935  25 3.14545454101562  C 24.9878686849863 3.14543430525935  24.9757373552043 3.14542418737593  24.9636060233134 3.14542418737593  C 12.9137569262899 3.14542418737593  3.14542418737593 12.9137569262899  3.14542418737593 24.9636060233134  C 3.14542418737593 24.9757373552043  3.14543430525935 24.9878686849863  3.14545454101562 25  C 3.14543430525935 25.0121313150136  3.14542418737593 25.0242626447957  3.14542418737593 25.0363939766866  C 3.14542418737593 37.0862430737101  12.9137569262899 46.8545758126241  24.9636060233134 46.8545758126241  C 24.9757373552043 46.8545758126241  24.9878686849863 46.8545656947406  25 46.8545454589844  C 25.0121313150136 46.8545656947406  25.0242626447957 46.8545758126241  25.0363939766866 46.8545758126241  C 37.0862430737101 46.8545758126241  46.8545758126241 37.0862430737101  46.8545758126241 25.0363939766866  C 46.8545758126241 25.0242626447957  46.8545656947406 25.0121313150136  46.8545454589844 25  C 46.8545656947406 24.9878686849863  46.8545758126241 24.9757373552043  46.8545758126241 24.9636060233134  C 46.8545758126241 12.9137569262899  37.0862430737101 3.14542418737593  25.0363939766866 3.14542418737593  Z M 33.0409090820312 26.9704545410156  L 33.0431818359375 26.9704545410156  L 21.3181818359375 35.0045454589844  C 19.7295454589844 36.0954545410156  18.4431818359375 35.4227272949219  19 33.4931818359375  L 19 16.5068181640625  C 18.4431818359375 14.5818181640625  19.7272727539062 13.9045454589844  21.3181818359375 14.9931818359375  L 33.0409090820312 23.0295454589844  C 34.6295454589844 24.1181818359375  34.6318181640625 25.8795454589844  33.0409090820312 26.9704545410156  Z " fill-rule="nonzero" fill="#333333" stroke="none" transform="matrix(1 0 0 1 163 127 )" />
  </g>
</svg>