<?xml version="1.0" encoding="utf-8"?>
<svg version="1.1" xmlns:xlink="http://www.w3.org/1999/xlink" width="23px" height="10px" xmlns="http://www.w3.org/2000/svg">
  <g transform="matrix(1 0 0 1 -590 -696 )">
    <path d="M 596.4 705.069747439057  L 590.783748534101 701  L 596.4 696.930252560943  L 596.4 699.2  L 606.6 699.2  L 606.6 696.930252560943  L 612.216251465899 701  L 606.6 705.069747439057  L 606.6 702.8  L 596.4 702.8  L 596.4 705.069747439057  Z " fill-rule="nonzero" fill="#ffffff" stroke="none" fill-opacity="0" />
    <path d="M 596.9 706  L 590 701  L 596.9 696  L 596.9 698.7  L 606.1 698.7  L 606.1 696  L 613 701  L 606.1 706  L 606.1 703.3  L 596.9 703.3  L 596.9 706  Z M 591.567497068203 701  L 595.9 704.139494878114  L 595.9 702.3  L 607.1 702.3  L 607.1 704.139494878114  L 611.432502931797 701  L 607.1 697.860505121886  L 607.1 699.7  L 595.9 699.7  L 595.9 697.860505121886  L 591.567497068203 701  Z " fill-rule="nonzero" fill="#797979" stroke="none" />
  </g>
</svg>