<?xml version="1.0" encoding="utf-8"?>
<svg version="1.1" xmlns:xlink="http://www.w3.org/1999/xlink" width="44px" height="13px" xmlns="http://www.w3.org/2000/svg">
  <defs>
    <mask fill="white" id="clip63">
      <path d="M 6.5 13  C 2.86000000000001 13  0 10.14  0 6.5  C 0 2.86  2.86000000000001 0  6.5 0  L 37.5 0  C 41.14 0  44 2.86  44 6.5  C 44 10.14  41.14 13  37.5 13  L 33.349693251536 13  L 6.5 13  Z " fill-rule="evenodd" />
    </mask>
  </defs>
  <g transform="matrix(1 0 0 1 -316 -74 )">
    <path d="M 6.5 13  C 2.86000000000001 13  0 10.14  0 6.5  C 0 2.86  2.86000000000001 0  6.5 0  L 37.5 0  C 41.14 0  44 2.86  44 6.5  C 44 10.14  41.14 13  37.5 13  L 33.349693251536 13  L 6.5 13  Z " fill-rule="nonzero" fill="#ffffff" stroke="none" transform="matrix(1 0 0 1 316 74 )" />
    <path d="M 6.5 13  C 2.86000000000001 13  0 10.14  0 6.5  C 0 2.86  2.86000000000001 0  6.5 0  L 37.5 0  C 41.14 0  44 2.86  44 6.5  C 44 10.14  41.14 13  37.5 13  L 33.349693251536 13  L 6.5 13  Z " stroke-width="2" stroke="#ffffff" fill="none" transform="matrix(1 0 0 1 316 74 )" mask="url(#clip63)" />
  </g>
</svg>