<?xml version="1.0" encoding="utf-8"?>
<svg version="1.1" xmlns:xlink="http://www.w3.org/1999/xlink" width="44px" height="60px" xmlns="http://www.w3.org/2000/svg">
  <g transform="matrix(1 0 0 1 0 -464 )">
    <path d="M 0 464  L 44 464  L 44 524  L 0 524  L 0 464  " fill-rule="nonzero" fill="#cccccc" stroke="none" />
    <path d="M 3 467  L 41 467  L 41 521  L 3 521  L 3 467  " fill-rule="nonzero" fill="#ffffff" stroke="none" />
    <path d="M 26.18 479.6  C 24.332 479.6  22.88 478.148  22.88 476.3  C 22.88 474.452  24.332 473  26.18 473  C 28.028 473  29.48 474.452  29.48 476.3  C 29.48 478.148  28.028 479.6  26.18 479.6  " fill-rule="nonzero" fill="#cccccc" stroke="none" />
    <path d="M 4 520  L 4 491.4  L 13 478.4  L 25.6 488.8  L 32.8 486.2  L 40 488.8  L 40 520  L 4 520  " fill-rule="nonzero" fill="#169bd5" stroke="none" />
  </g>
</svg>