<?xml version="1.0" encoding="utf-8"?>
<svg version="1.1" xmlns:xlink="http://www.w3.org/1999/xlink" width="12px" height="12px" viewBox="417 319  12 12" xmlns="http://www.w3.org/2000/svg">
  <path d="M 423 319  C 426.36 319  429 321.64  429 325  C 429 328.36  426.36 331  423 331  C 419.64 331  417 328.36  417 325  C 417 321.64  419.64 319  423 319  Z " fill-rule="nonzero" fill="#ffffff" stroke="none" />
  <path d="M 423 319.5  C 426.08 319.5  428.5 321.92  428.5 325  C 428.5 328.08  426.08 330.5  423 330.5  C 419.92 330.5  417.5 328.08  417.5 325  C 417.5 321.92  419.92 319.5  423 319.5  Z " stroke-width="1" stroke="#797979" fill="none" />
  <path d="M 423 328  C 421.32 328  420 326.68  420 325  C 420 323.32  421.32 322  423 322  C 424.68 322  426 323.32  426 325  C 426 326.68  424.68 328  423 328  " fill-rule="nonzero" fill="#797979" stroke="none" />
</svg>