<?xml version="1.0" encoding="utf-8"?>
<svg version="1.1" xmlns:xlink="http://www.w3.org/1999/xlink" width="12px" height="12px" viewBox="507 471  12 12" xmlns="http://www.w3.org/2000/svg">
  <path d="M 513 471  C 516.36 471  519 473.64  519 477  C 519 480.36  516.36 483  513 483  C 509.64 483  507 480.36  507 477  C 507 473.64  509.64 471  513 471  Z " fill-rule="nonzero" fill="#ffffff" stroke="none" />
  <path d="M 513 471.5  C 516.08 471.5  518.5 473.92  518.5 477  C 518.5 480.08  516.08 482.5  513 482.5  C 509.92 482.5  507.5 480.08  507.5 477  C 507.5 473.92  509.92 471.5  513 471.5  Z " stroke-width="1" stroke="#7f7f7f" fill="none" />
  <path d="M 513 480  C 511.32 480  510 478.68  510 477  C 510 475.32  511.32 474  513 474  C 514.68 474  516 475.32  516 477  C 516 478.68  514.68 480  513 480  " fill-rule="nonzero" fill="#7f7f7f" stroke="none" />
</svg>