<?xml version="1.0" encoding="utf-8"?>
<svg version="1.1" xmlns:xlink="http://www.w3.org/1999/xlink" width="14px" height="3px" xmlns="http://www.w3.org/2000/svg">
  <g transform="matrix(1 0 0 1 -346 -41 )">
    <path d="M 3.04826626712329 1.5  C 3.04826626712329 2.30901489257813  2.37746414811644 2.96484375  1.54997859589041 2.96484375  C 0.722493043664384 2.96484375  0.0516909246575342 2.30901489257813  0.0516909246575342 1.5  C 0.0516909246575342 0.690985107421874  0.722493043664384 0.03515625  1.54997859589041 0.03515625  C 2.37746414811644 0.03515625  3.04826626712329 0.690985107421874  3.04826626712329 1.5  Z M 8.49828767123288 1.5  C 8.49828767123288 2.30901489257813  7.82748555222603 2.96484375  7 2.96484375  C 6.17251444777397 2.96484375  5.50171232876712 2.30901489257813  5.50171232876712 1.5  C 5.50171232876712 0.690985107421874  6.17251444777397 0.03515625  7 0.03515625  C 7.82748555222603 0.03515625  8.49828767123288 0.690985107421874  8.49828767123288 1.5  Z M 13.9483090753425 1.5  C 13.9483090753425 2.30901489257813  13.2775069563356 2.96484375  12.4500214041096 2.96484375  C 11.6225358518836 2.96484375  10.9517337328767 2.30901489257813  10.9517337328767 1.5  C 10.9517337328767 0.690985107421874  11.6225358518836 0.03515625  12.4500214041096 0.03515625  C 13.2775069563356 0.03515625  13.9483090753425 0.690985107421874  13.9483090753425 1.5  Z " fill-rule="nonzero" fill="#d7d7d7" stroke="none" transform="matrix(1 0 0 1 346 41 )" />
  </g>
</svg>