<?xml version="1.0" encoding="utf-8"?>
<svg version="1.1" xmlns:xlink="http://www.w3.org/1999/xlink" width="12px" height="12px" xmlns="http://www.w3.org/2000/svg">
  <g transform="matrix(1 0 0 1 -15 -36 )">
    <path d="M 6.10275764089595 6.54067883272059  C 6.07734595827312 6.51541126378677  6.05042318009393 6.49172378216912  6.02008998825867 6.46346529871323  C 5.62252831918353 6.85851980238971  5.22890386560694 7.24951118106618  4.83545963692197 7.64068596507353  C 3.43894058887283 9.02910461856618  2.03971815390173 10.4147298667279  0.64920196441474 11.8093701838235  C 0.45806680816474 12.0010708042279  0.136338118677746 11.9662238327206  0.0654821260838148 11.6891693244485  C 0.0290767521676299 11.546832890625  0.086415904985549 11.4367616360294  0.185414685693641 11.338639921875  C 0.832892462969653 10.6968350597426  1.47902548320087 10.0536193979779  2.12550508038295 9.410770546875  C 3.22021720556358 8.32221916819853  4.31486000722543 7.23359725643382  5.40962758309248 6.14510232077206  C 5.45552941203035 6.09946267003677  5.50237394328035 6.05481059283088  5.58086870484104 5.978528203125  C 5.5339271179552 5.9478572288603  5.48777575415462 5.92768267003677  5.45424010567196 5.89437350183824  C 3.70352419617052 4.15532669117647  1.95418077583092 2.41486906709559  0.203409415643064 0.675906907169118  C 0.102788624458092 0.575965257352941  0.0308373961343931 0.469181181066177  0.0616280933887284 0.319945891544118  C 0.111439405708093 0.0785001838235293  0.390773722001445 -0.0233460661764707  0.581631597723989 0.130629540441176  C 0.638055766799133 0.176156318933823  0.687756177745665 0.230444214154412  0.739452921784682 0.281854067095588  C 2.46926277095376 2.00169977481618  4.19892011380058 3.72170068014706  5.92870224440029 5.44158871323529  C 5.95724704660405 5.46997417279412  5.98692866239162 5.49717454963235  6.02325085350433 5.53176756893382  C 6.0599889450867 5.49637039522059  6.09464753432081 5.46386536764706  6.12834953486272 5.43035867647059  C 7.87824750270954 3.69049359375  9.62829796333092 1.95076960477941  11.377322525289 0.209973391544118  C 11.4794821576951 0.108296443014706  11.5851908372471 0.0274571415441175  11.7383956376445 0.0662966911764705  C 11.9818513818642 0.128005436580882  12.0718805229408 0.415387072610294  11.9045904759754 0.608230436580882  C 11.8250420971821 0.699932964154412  11.734056380961 0.781407146139706  11.6478812861272 0.867113740808824  C 9.95558587879335 2.54998217371324  8.26323503432081 4.23279416360294  6.57102280979046 5.91576135110294  C 6.54540318370665 5.941240546875  6.52147490516619 5.96846914522059  6.48233842575867 6.0102855055147  C 6.5333281295159 6.05509276654412  6.5837494400289 6.09482113511029  6.62906900289017 6.13986823069853  C 8.36206744942197 7.86223928768383  10.0945945177023 9.58510411764706  11.8271770637645 11.3079266360294  C 11.8501626399928 11.3307817279412  11.8737582008671 11.3530866038603  11.8954683300217 11.3771691038603  C 12.0215423952312 11.5170366314338  12.0213621703396 11.7114036672794  11.8955931042269 11.8404220726103  C 11.7722085531069 11.9669997794118  11.5725196576951 11.973813984375  11.4395277501806 11.8450636351103  C 11.1892373329118 11.6027714338235  10.9441457053829 11.3549206571691  10.6970577312139 11.1092143014706  C 9.16561973898121 9.58635974724265  7.63426494309971 8.06344875  6.10275764089595 6.54067883272059  Z " fill-rule="nonzero" fill="#d7d7d7" stroke="none" transform="matrix(1 0 0 1 15 36 )" />
  </g>
</svg>