<?xml version="1.0" encoding="utf-8"?>
<svg version="1.1" xmlns:xlink="http://www.w3.org/1999/xlink" width="20px" height="15px" xmlns="http://www.w3.org/2000/svg">
  <g transform="matrix(1 0 0 1 -340 -79 )">
    <path d="M 2.34146341463415 1  L 17.6390243902439 1  C 17.9863414634146 0.79490022172949  18.3141463414634 0.903230915426037  18.5873170731707 1.10848907190371  C 18.9775609756098 1.39927146024707  19.2 1.84019638897688  19 2.31533101045296  L 19 12.6922711434907  C 19.2 13.5304086157745  18.499512195122 14.2127019322141  17.6390243902439 14  L 2.34146341463415 14  C 1.4809756097561 14.2127019322141  0.780487804878049 13.5304086157745  1 12.6922711434907  L 1 2.31533101045296  C 0.780487804878049 1.47719353816915  1.4809756097561 0.794900221729491  2.34146341463415 1  Z M 19.0614634146341 0.504117833386126  C 18.6692682926829 0.209534368070954  18.1756097560976 0.0346848273677545  17.6390243902439 0  L 2.34146341463415 0  C 1.04780487804878 0.0346848273677548  0 1.05527399429838  0 2.31533101045296  L 0 12.6922711434907  C 0 13.9523281596452  1.04780487804878 14.9729173265759  2.34146341463415 15  L 17.6390243902439 15  C 18.9326829268293 14.9729173265759  19.980487804878 13.9523281596452  20 12.6922711434907  L 20 2.31533101045296  C 19.980487804878 1.57792207792208  19.6214634146341 0.920335761799177  19.0614634146341 0.504117833386126  Z " fill-rule="nonzero" fill="#d7d7d7" stroke="none" transform="matrix(1 0 0 1 340 79 )" />
  </g>
</svg>