<?xml version="1.0" encoding="utf-8"?>
<svg version="1.1" xmlns:xlink="http://www.w3.org/1999/xlink" width="20px" height="20px" xmlns="http://www.w3.org/2000/svg">
  <g transform="matrix(1 0 0 1 -80 -77 )">
    <path d="M 19.2977061170213 19.3011968085106  C 20.1978058510638 18.405585106383  20.1978058510638 16.9384973404255  19.3001994680851 16.0408909574468  L 16.9295212765957 13.6702127659574  C 16.4532996615415 13.1947340393742  15.7926507114463 12.9517974737254  15.1218417553191 13.0054853723404  C 17.3513962765957 9.78058510638298  17.0292553191489 5.32297207446809  14.1579122340426 2.45113031914894  C 10.9255319148936 -0.782247340425531  5.68351063829787 -0.782247340425531  2.4501329787234 2.45113031914894  C -0.782247340425532 5.68450797872341  -0.782247340425532 10.9270279255319  2.4501329787234 14.1604055851064  C 5.32147606382979 17.0322473404255  9.77559840425532 17.3518949468085  13.0024933510638 15.1223404255319  C 12.9526263297872 15.7706117021277  13.1750332446808 16.4378324468085  13.6672207446809 16.9300199468085  L 16.0378989361702 19.3011968085106  C 16.9355053191489 20.1968085106383  18.4020944148936 20.1968085106383  19.2977061170213 19.3011968085106  Z M 13.1964760638298 3.4155585106383  C 15.8972739361702 6.11486037234043  15.8972739361702 10.4951795212766  13.1964760638298 13.1964760638298  C 10.4951795212766 15.897772606383  6.11785239361702 15.897772606383  3.41755319148936 13.1964760638298  C 0.716256648936171 10.4951795212766  0.716256648936171 6.11685505319149  3.41755319148936 3.4155585106383  C 6.11785239361702 0.714261968085107  10.4951795212766 0.714261968085107  13.1964760638298 3.4155585106383  Z " fill-rule="nonzero" fill="#d7d7d7" stroke="none" transform="matrix(1 0 0 1 80 77 )" />
  </g>
</svg>