<?xml version="1.0" encoding="utf-8"?>
<svg version="1.1" xmlns:xlink="http://www.w3.org/1999/xlink" width="20px" height="20px" xmlns="http://www.w3.org/2000/svg">
  <g transform="matrix(1 0 0 1 -128 -794 )">
    <path d="M 3.66071428571428 15.3409090909091  C 4.07738095238096 15.8712121212121  4.28571428571428 16.5151515151515  4.28571428571428 17.2727272727273  C 4.28571428571428 18.030303030303  4.07738095238096 18.6742424242424  3.66071428571428 19.2045454545454  C 3.24404761904759 19.7348484848485  2.73809523809524 20  2.14285714285717 20  C 1.54761904761904 20  1.04166666666669 19.7348484848485  0.625 19.2045454545454  C 0.208333333333314 18.6742424242424  0 18.030303030303  0 17.2727272727273  C 0 16.5151515151515  0.208333333333314 15.8712121212121  0.625 15.3409090909091  C 1.04166666666669 14.8106060606061  1.54761904761904 14.5454545454546  2.14285714285717 14.5454545454546  C 2.73809523809524 14.5454545454546  3.24404761904759 14.8106060606061  3.66071428571428 15.3409090909091  Z M 3.66071428571428 8.06818181818181  C 4.07738095238096 8.59848484848482  4.28571428571428 9.24242424242425  4.28571428571428 10  C 4.28571428571428 10.7575757575758  4.07738095238096 11.4015151515152  3.66071428571428 11.9318181818182  C 3.24404761904759 12.4621212121212  2.73809523809524 12.7272727272727  2.14285714285717 12.7272727272727  C 1.54761904761904 12.7272727272727  1.04166666666669 12.4621212121212  0.625 11.9318181818182  C 0.208333333333314 11.4015151515152  0 10.7575757575758  0 10  C 0 9.24242424242425  0.208333333333314 8.59848484848482  0.625 8.06818181818181  C 1.04166666666669 7.53787878787875  1.54761904761904 7.27272727272725  2.14285714285717 7.27272727272725  C 2.73809523809524 7.27272727272725  3.24404761904759 7.53787878787875  3.66071428571428 8.06818181818181  Z M 19.8939732142857 15.5894886363636  C 19.9646577380952 15.6794507575758  20 15.7859848484848  20 15.9090909090909  L 20 18.6363636363636  C 20 18.7594696969697  19.9646577380952 18.8660037878788  19.8939732142857 18.9559659090909  C 19.8232886904762 19.045928030303  19.7395833333333 19.0909090909091  19.6428571428572 19  L 6.07142857142856 19  C 5.97470238095241 19.0909090909091  5.89099702380952 19.045928030303  5.8203125 18.9559659090909  C 5.74962797619048 18.8660037878788  5.71428571428572 18.7594696969697  5.71428571428572 18.6363636363636  L 5.71428571428572 15.9090909090909  C 5.71428571428572 15.7859848484848  5.74962797619048 15.6794507575758  5.8203125 15.5894886363636  C 5.89099702380952 15.4995265151515  5.97470238095241 15.4545454545454  6.07142857142856 15.4545454545454  L 19.6428571428572 15.4545454545454  C 19.7395833333333 15.4545454545454  19.8232886904762 15.4995265151515  19.8939732142857 15.5894886363636  Z M 3.66071428571428 0.795454545454561  C 4.07738095238096 1.32575757575756  4.28571428571428 1.96969696969694  4.28571428571428 2.72727272727275  C 4.28571428571428 3.4848484848485  4.07738095238096 4.12878787878788  3.66071428571428 4.65909090909088  C 3.24404761904759 5.18939393939394  2.73809523809524 5.45454545454544  2.14285714285717 5.45454545454544  C 1.54761904761904 5.45454545454544  1.04166666666669 5.18939393939394  0.625 4.65909090909088  C 0.208333333333314 4.12878787878788  0 3.4848484848485  0 2.72727272727275  C 0 1.96969696969694  0.208333333333314 1.32575757575756  0.625 0.795454545454561  C 1.04166666666669 0.265151515151501  1.54761904761904 0  2.14285714285717 0  C 2.73809523809524 0  3.24404761904759 0.265151515151501  3.66071428571428 0.795454545454561  Z M 19.8939732142857 8.31676136363637  C 19.9646577380952 8.4067234848485  20 8.51325757575756  20 8.63636363636363  L 20 11.3636363636364  C 20 11.4867424242424  19.9646577380952 11.5932765151515  19.8939732142857 11.6832386363636  C 19.8232886904762 11.7732007575758  19.7395833333333 11.8181818181818  19.6428571428572 11.8181818181818  L 6.07142857142856 11.8181818181818  C 5.97470238095241 11.8181818181818  5.89099702380952 11.7732007575758  5.8203125 11.6832386363636  C 5.74962797619048 11.5932765151515  5.71428571428572 11.4867424242424  5.71428571428572 11.3636363636364  L 5.71428571428572 8.63636363636363  C 5.71428571428572 8.51325757575756  5.74962797619048 8.4067234848485  5.8203125 8.31676136363637  C 5.89099702380952 8.22679924242425  5.97470238095241 8.18181818181819  6.07142857142856 8.18181818181819  L 19.6428571428572 8.18181818181819  C 19.7395833333333 8.18181818181819  19.8232886904762 8.22679924242425  19.8939732142857 8.31676136363637  Z M 19.8939732142857 1.04403409090912  C 19.9646577380952 1.13399621212119  20 1.24053030303031  20 1.36363636363637  L 20 4.09090909090912  C 20 4.21401515151518  19.9646577380952 4.32054924242425  19.8939732142857 4.41051136363637  C 19.8232886904762 4.5004734848485  19.7395833333333 4.54545454545456  19.6428571428572 4.54545454545456  L 6.07142857142856 4.54545454545456  C 5.97470238095241 4.54545454545456  5.89099702380952 4.5004734848485  5.8203125 4.41051136363637  C 5.74962797619048 4.32054924242425  5.71428571428572 4.21401515151518  5.71428571428572 4.09090909090912  L 5.71428571428572 1.36363636363637  C 5.71428571428572 1.24053030303031  5.74962797619048 1.13399621212119  5.8203125 1.04403409090912  C 5.89099702380952 0.95407196969694  5.97470238095241 0.909090909090878  6.07142857142856 1  L 19.6428571428572 1  C 19.7395833333333 0.909090909090878  19.8232886904762 0.95407196969694  19.8939732142857 1.04403409090912  Z " fill-rule="nonzero" fill="#d7d7d7" stroke="none" transform="matrix(1 0 0 1 128 794 )" />
  </g>
</svg>