<?xml version="1.0" encoding="utf-8"?>
<svg version="1.1" xmlns:xlink="http://www.w3.org/1999/xlink" width="9px" height="8px" xmlns="http://www.w3.org/2000/svg">
  <g transform="matrix(1 0 0 1 -77 -685 )">
    <path d="M 8.67779894875919 3.66091554608586  L 7.05270921128217 4.95207654671717  C 6.95038527401195 5.04454658301768  6.90369761029412 5.17778121054293  6.92786272403493 5.30835298295454  L 7.31158240464154 7.38229995265151  C 7.34160236960018 7.54663817866162  7.3116328125 7.66441908933081  7.1662893181296 7.76257914299243  C 7.08404928481158 7.81801262626263  6.98620974264706 7.84628525094697  6.88837020048254 7.84628525094697  C 6.81322450022978 7.84628525094697  6.73782688993566 7.82963560606061  6.66858644875919 7.79588783143939  L 4.61668685087316 6.77056065340909  C 4.49021798023897 6.70892333491162  4.33914057904412 6.70892333491162  4.2126716997932 6.77056065340909  L 2.24690197610294 7.79589711963384  C 2.08761165268842 7.87367959280303  1.89477433076746 7.86053368844697  1.74895723517923 7.76258848642677  C 1.60361376665901 7.66442843276515  1.48752439108456 7.54686242108586  1.5180180089614 7.38230929608586  L 1.98807914751838 5.26530863320707  C 2.01223419692096 5.13473686868687  1.96554651596967 5.00150226483586  1.86323269473805 4.90903222853535  L 0.151801447610294 3.66091554608586  C 0.0225311063878677 3.54456418087121  -0.0235519301470588 3.37036881313131  0.0317517463235294 3.21172994791667  C 0.0875189855238971 3.05309107481061  0.235230598000919 2.93761797664141  0.413415665211397 2.91351242108586  L 2.63951981560202 2.55130303819444  C 2.78087272231158 2.53224282670454  2.90305878619026 2.44993823390151  2.96630329446232 2.33119499684343  L 3.99117482192096 0.325939512310604  C 4.07058316578585 0.176288841540403  4.23483146829044 0.0816231297348457  4.41491105238971 0.0816231297348457  C 4.5949906451057 0.0816231297348457  4.75876531192555 0.176279490214645  4.83864728285846 0.325939512310604  L 5.82332084386489 2.3311482717803  C 5.88655527918199 2.44992888257576  6.00876154067096 2.53226151357323  6.15014464901195 2.55132172506313  L 8.41640647403493 2.91352175662879  C 8.59412796128217 2.93740307765151  8.7423031451057 3.05310041035353  8.79760682157629 3.21173929135101  C 8.85315236960018 3.37036881313131  8.80635380859375 3.54456418087121  8.67779894875919 3.66091554608586  Z " fill-rule="nonzero" fill="#f59a23" stroke="none" transform="matrix(1 0 0 1 77 685 )" />
  </g>
</svg>