<?xml version="1.0" encoding="utf-8"?>
<svg version="1.1" xmlns:xlink="http://www.w3.org/1999/xlink" width="9px" height="8px" xmlns="http://www.w3.org/2000/svg">
  <g transform="matrix(1 0 0 1 -87 -685 )">
    <path d="M 8.84552624655331 3.66010049715909  L 7.22043650907629 4.9512614977904  C 7.11811257180607 5.04373154198232  7.07142490808824 5.17696616161616  7.09559007352941 5.30753792613636  L 7.47930970243566 7.38148489583333  C 7.5093297277114 7.54582312973485  7.47936011029412 7.66360404040404  7.33401661592371 7.76176409406566  C 7.2517765826057 7.81719757733586  7.15393704044118 7.8454702020202  7.05609749827666 7.8454702020202  C 6.9809517980239 7.8454702020202  6.90555418772978 7.82882055713384  6.83631374655331 7.79507277462121  L 4.78441417451746 6.76974560448232  C 4.65794526079963 6.70810828598485  4.50686790268842 6.70810828598485  4.38039898897059 6.76974560448232  L 2.41462929974724 7.79508211805555  C 2.25533895048254 7.87286454387626  2.06250165441177 7.8597186395202  1.91668455882353 7.7617734375  C 1.77134106445313 7.66361338383838  1.65525170611213 7.54604737215909  1.6857453326057 7.38149423926768  L 2.15580645392923 5.2644935842803  C 2.17996152918199 5.1339218197601  2.13327380514706 5.0006872238005  2.03096001838235 4.90821717960859  L 0.319528728170958 3.66010049715909  C 0.190258404181986 3.54374913194444  0.144175367647061 3.36955376420455  0.199479044117648 3.2109148989899  C 0.255246283318016 3.05227603377525  0.402957904411765 2.93680292771465  0.581142963005517 2.91269737215909  L 2.8072471306296 2.55048799715909  C 2.9486000201057 2.53142778566919  3.07078610121783 2.44912318497475  3.13403062672335 2.33037995580808  L 4.15890215418199 0.325124463383838  C 4.23831049804688 0.175473792613637  4.40255878331802 0.0808080808080797  4.58263836741728 0.0808080808080797  C 4.76271794289982 0.0808080808080797  4.92649262695313 0.175464441287879  5.00637458065257 0.325124463383838  L 5.99104814165901 2.33033322285353  C 6.0542825769761 2.44911383364899  6.17648883846507 2.53144646464646  6.31787194680607 2.55050667613636  L 8.58413377182904 2.91270671559343  C 8.76185525907629 2.93658803661616  8.91003044289982 3.05228536931818  8.9653341193704 3.21092423453283  C 9.0208796673943 3.36955376420455  8.97408115808824 3.54374913194444  8.84552624655331 3.66010049715909  Z " fill-rule="nonzero" fill="#f59a23" stroke="none" transform="matrix(1 0 0 1 87 685 )" />
  </g>
</svg>