<?xml version="1.0" encoding="utf-8"?>
<svg version="1.1" xmlns:xlink="http://www.w3.org/1999/xlink" width="9px" height="8px" xmlns="http://www.w3.org/2000/svg">
  <g transform="matrix(1 0 0 1 -97 -685 )">
    <path d="M 8.75729095243567 3.66010049715909  L 7.13220121495864 4.9512614977904  C 7.02987727768842 5.04373154198232  6.98318961397059 5.17696616161616  7.00735477941177 5.30753792613636  L 7.39107440831802 7.38148489583333  C 7.42109443359375 7.54582312973485  7.39112481617647 7.66360404040404  7.24578132180607 7.76176409406566  C 7.16354128848805 7.81719757733586  7.06570174632353 7.8454702020202  6.96786220415901 7.8454702020202  C 6.89271650390625 7.8454702020202  6.81731889361213 7.82882055713384  6.74807845243567 7.79507277462121  L 4.69617888039982 6.76974560448232  C 4.56970996668199 6.70810828598485  4.41863260857077 6.70810828598485  4.29216369485294 6.76974560448232  L 2.3263940056296 7.79508211805555  C 2.16710365636489 7.87286454387626  1.97426636029412 7.8597186395202  1.82844926470588 7.7617734375  C 1.68310577033548 7.66361338383838  1.56701641199449 7.54604737215909  1.59751003848805 7.38149423926768  L 2.06757115981158 5.2644935842803  C 2.09172623506434 5.1339218197601  2.04503851102941 5.0006872238005  1.94272472426471 4.90821717960859  L 0.23129343405331 3.66010049715909  C 0.102023110064338 3.54374913194444  0.0559400735294133 3.36955376420455  0.11124375 3.2109148989899  C 0.167010989200368 3.05227603377525  0.314722610294118 2.93680292771465  0.492907668887867 2.91269737215909  L 2.71901183651195 2.55048799715909  C 2.86036472598805 2.53142778566919  2.98255080710019 2.44912318497475  3.0457953326057 2.33037995580808  L 4.07066686006434 0.325124463383838  C 4.15007520392923 0.175473792613637  4.31432348920037 0.0808080808080797  4.49440307329963 0.0808080808080797  C 4.67448264878217 0.0808080808080797  4.83825733283548 0.175464441287879  4.91813928653493 0.325124463383838  L 5.90281284754136 2.33033322285353  C 5.96604728285846 2.44911383364899  6.08825354434743 2.53144646464646  6.22963665268842 2.55050667613636  L 8.4958984777114 2.91270671559343  C 8.67361996495864 2.93658803661616  8.82179514878217 3.05228536931818  8.87709882525276 3.21092423453283  C 8.93264437327666 3.36955376420455  8.88584586397059 3.54374913194444  8.75729095243567 3.66010049715909  Z " fill-rule="nonzero" fill="#f59a23" stroke="none" transform="matrix(1 0 0 1 97 685 )" />
  </g>
</svg>