<?xml version="1.0" encoding="utf-8"?>
<svg version="1.1" xmlns:xlink="http://www.w3.org/1999/xlink" width="9px" height="8px" xmlns="http://www.w3.org/2000/svg">
  <g transform="matrix(1 0 0 1 -107 -685 )">
    <path d="M 8.66905565860334 3.66010049715909  L 7.04396592252734 4.9512614977904  C 6.94164198534533 5.04373154198232  6.89495432166775 5.17696616161616  6.9191194870881 5.30753792613636  L 7.30283911566353 7.38148489583333  C 7.33285914091339 7.54582312973485  7.30288952352195 7.66360404040404  7.15754602927685 7.76176409406566  C 7.07530599602973 7.81719757733586  6.97746645394956 7.8454702020202  6.87962691186938 7.8454702020202  C 6.80448121168142 7.8454702020202  6.72908360145231 7.82882055713384  6.65984316033552 7.79507277462121  L 4.60794359006867 6.76974560448232  C 4.48147467645987 6.70810828598485  4.33039731847891 6.70810828598485  4.20392840487011 6.76974560448232  L 2.23815871734149 7.79508211805555  C 2.07886836821412 7.87286454387626  1.8860310723096 7.8597186395202  1.74021397684708 7.7617734375  C 1.59487048260197 7.66361338383838  1.47878112436107 7.54604737215909  1.50927475082834 7.38149423926768  L 1.97933587174662 5.2644935842803  C 2.00349094697855 5.1339218197601  1.95680322298387 5.0006872238005  1.85448943630738 4.90821717960859  L 0.143058147571447 3.66010049715909  C 0.013787823693922 3.54374913194444  -0.0322952128012734 3.36955376420455  0.0230084636216346 3.2109148989899  C 0.0787757027739243 3.05227603377525  0.226487323740328 2.93680292771465  0.404672382180461 2.91269737215909  L 2.63077654788537 2.55048799715909  C 2.77212943723961 2.53142778566919  2.89431551824639 2.44912318497475  2.95756004369739 2.33037995580808  L 3.98243157027247 0.325124463383838  C 4.06183991406889 0.175473792613637  4.22608819919843 0.0808080808080797  4.40616778314244 0.0808080808080797  C 4.58624735846973 0.0808080808080797  4.75002204238184 0.175464441287879  4.82990399601243 0.325124463383838  L 5.81457755616995 2.33033322285353  C 5.87781199143253 2.44911383364899  6.00001825281614 2.53144646464646  6.14140136103525 2.55050667613636  L 8.40766318410442 2.91270671559343  C 8.58538467119844 2.93658803661616  8.73355985489423 3.05228536931818  8.78886353131714 3.21092423453283  C 8.84440907929316 3.36955376420455  8.79761057002743 3.54374913194444  8.66905565860334 3.66010049715909  Z " fill-rule="nonzero" fill="#f59a23" stroke="none" transform="matrix(1 0 0 1 107 685 )" />
  </g>
</svg>