<?xml version="1.0" encoding="utf-8"?>
<svg version="1.1" xmlns:xlink="http://www.w3.org/1999/xlink" width="12px" height="14px" xmlns="http://www.w3.org/2000/svg">
  <g transform="matrix(1 0 0 1 -18 -37 )">
    <path d="M 11.7938144329897 0.841683366733466  C 11.9312714776632 0.935203740814962  12 1.04275217100868  12 1.16432865731463  C 12 1.28590514362057  11.9312714776632 1.39345357381429  11.7938144329897 1.48697394789579  L 3.69072164948454 7  L 11.7938144329897 12.5130260521042  C 11.9312714776632 12.6065464261857  12 12.7140948563794  12 12.8356713426854  C 12 12.9572478289913  11.9312714776632 13.064796259185  11.7938144329897 13.1583166332665  L 10.7628865979381 13.8597194388778  C 10.6254295532646 13.9532398129593  10.46735395189 14  10.2886597938144 14  C 10.1099656357388 14  9.95189003436426 13.9532398129593  9.81443298969072 13.8597194388778  L 0.206185567010309 7.32264529058116  C 0.0687285223367698 7.22912491649967  0 7.12157648630594  0 7  C 0 6.87842351369405  0.0687285223367698 6.77087508350033  0.206185567010309 6.67735470941884  L 9.81443298969072 0.140280561122245  C 9.95189003436426 0.0467601870407477  10.1099656357388 0  10.2886597938144 0  C 10.46735395189 0  10.6254295532646 0.0467601870407477  10.7628865979381 0.140280561122245  L 11.7938144329897 0.841683366733466  Z " fill-rule="nonzero" fill="#333333" stroke="none" transform="matrix(1 0 0 1 18 37 )" />
  </g>
</svg>