<?xml version="1.0" encoding="utf-8"?>
<svg version="1.1" xmlns:xlink="http://www.w3.org/1999/xlink" width="16px" height="10px" xmlns="http://www.w3.org/2000/svg">
  <g transform="matrix(1 0 0 1 -83 -5 )">
    <path d="M 8.75763747454175 9.47311827956989  C 8.36116768499661 9.82437275985663  8.10862186014936 10  8 10  C 7.89137813985065 10  7.63883231500339 9.82437275985663  7.24236252545825 9.47311827956989  C 6.8458927359131 9.12186379928315  6.64765784114053 8.8984468339307  6.64765784114053 8.80286738351255  C 6.64765784114053 8.64994026284349  6.8173794976239 8.52090800477897  7.15682281059063 8.415770609319  C 7.49626612355737 8.31063321385902  7.77732518669382 8.25806451612903  8 8.25806451612903  C 8.22267481330618 8.25806451612903  8.50373387644263 8.31063321385902  8.84317718940937 8.415770609319  C 9.1826205023761 8.52090800477897  9.35234215885947 8.64994026284349  9.35234215885947 8.80286738351255  C 9.35234215885947 8.8984468339307  9.1541072640869 9.12186379928315  8.75763747454175 9.47311827956989  Z M 10.9613034623218 7.51971326164875  C 10.551255940258 7.87813620071685  10.2973523421589 8.0573476702509  10.1995926680244 8.0573476702509  C 10.1887304820095 8.0573476702509  10.0801086218602 7.99761051373955  9.87372708757638 7.87813620071685  C 9.6673455532926 7.75866188769415  9.39171758316361 7.63918757467145  9.04684317718941 7.51971326164875  C 8.70196877121521 7.40023894862605  8.35302104548541 7.3405017921147  8 7.3405017921147  C 7.6469789545146 7.3405017921147  7.29803122878479 7.40023894862605  6.95315682281059 7.51971326164875  C 6.60828241683639 7.63918757467145  6.33401221995927 7.75866188769415  6.13034623217923 7.87813620071685  C 5.92668024439919 7.99761051373955  5.81670061099796 8.0573476702509  5.80040733197556 8.0573476702509  C 5.70264765784114 8.0573476702509  5.44874405974202 7.87813620071685  5.03869653767821 7.51971326164875  C 4.62864901561439 7.16129032258064  4.42362525458248 6.93906810035842  4.42362525458248 6.85304659498208  C 4.42362525458248 6.79091995221027  4.45078071961982 6.73596176821983  4.5050916496945 6.68817204301075  C 4.92871690427699 6.32019115890084  5.46096401900883 6.0310633213859  6.10183299389002 5.82078853046595  C 6.74270196877122 5.610513739546  7.37542430414121 5.50537634408602  8 5.50537634408602  C 8.62457569585879 5.50537634408602  9.25729803122879 5.610513739546  9.89816700610998 5.82078853046595  C 10.5390359809912 6.0310633213859  11.071283095723 6.32019115890084  11.4949083503055 6.68817204301075  C 11.5492192803802 6.73596176821983  11.5763747454175 6.79091995221027  11.5763747454175 6.85304659498208  C 11.5763747454175 6.93906810035842  11.3713509843856 7.16129032258064  10.9613034623218 7.51971326164875  Z M 13.173116089613 5.56989247311828  C 12.765784114053 5.92831541218638  12.5159538357094 6.10752688172043  12.4236252545825 6.10752688172043  C 12.3638832315003 6.10752688172043  12.3014256619145 6.0884109916368  12.2362525458248 6.05017921146953  C 11.4976238968092 5.54838709677419  10.8133061778683 5.17921146953405  10.183299389002 4.9426523297491  C 9.55329260013578 4.70609318996416  8.8255261371351 4.58781362007168  8 4.58781362007168  C 7.53835709436524 4.58781362007168  7.07535641547862 4.64038231780167  6.61099796334012 4.74551971326165  C 6.14663951120163 4.85065710872162  5.74202308214528 4.97729988052569  5.39714867617108 5.12544802867384  C 5.05227427019688 5.27359617682198  4.74405974202308 5.42174432497013  4.47250509164969 5.56989247311828  C 4.20095044127631 5.71804062126643  3.98642226748133 5.84468339307049  3.82892057026477 5.94982078853047  C 3.6714188730482 6.05495818399044  3.58723693143245 6.10752688172043  3.57637474541752 6.10752688172043  C 3.48404616429056 6.10752688172043  3.23421588594705 5.92831541218638  2.82688391038697 5.56989247311828  C 2.41955193482688 5.21146953405018  2.21588594704684 4.98924731182796  2.21588594704684 4.90322580645161  C 2.21588594704684 4.84587813620072  2.24304141208418 4.79330943847073  2.29735234215886 4.74551971326165  C 3.0142566191446 4.11469534050179  3.88323150033944 3.62485065710872  4.90427698574338 3.27598566308244  C 5.92532247114732 2.92712066905615  6.95723014256619 2.75268817204301  8 2.75268817204301  C 9.04276985743381 2.75268817204301  10.0746775288527 2.92712066905615  11.0957230142566 3.27598566308244  C 12.1167684996606 3.62485065710872  12.9857433808554 4.11469534050179  13.7026476578411 4.74551971326165  C 13.7569585879158 4.79330943847073  13.7841140529532 4.84587813620072  13.7841140529532 4.90322580645161  C 13.7841140529532 4.98924731182796  13.5804480651731 5.21146953405018  13.173116089613 5.56989247311828  Z M 15.3849287169043 3.62724014336918  C 14.9748811948405 3.98566308243728  14.7236931432451 4.16487455197133  14.6313645621181 4.16487455197133  C 14.571622539036 4.16487455197133  14.5118805159538 4.14336917562724  14.4521384928717 4.10035842293907  C 13.479972844535 3.35005973715651  12.4711473183978 2.78494623655914  11.4256619144603 2.40501792114695  C 10.3801765105227 2.02508960573477  9.23828920570265 1.83512544802867  8 1.83512544802867  C 6.76171079429735 1.83512544802867  5.61982348947726 2.02508960573477  4.57433808553971 2.40501792114695  C 3.52885268160217 2.78494623655914  2.52002715546504 3.35005973715651  1.54786150712831 4.10035842293907  C 1.48811948404616 4.14336917562724  1.42837746096402 4.16487455197133  1.36863543788187 4.16487455197133  C 1.27630685675492 4.16487455197133  1.02511880515954 3.98566308243728  0.615071283095723 3.62724014336918  C 0.205023761031908 3.26881720430108  0 3.04659498207885  0 2.96057347670251  C 0 2.8984468339307  0.0271554650373388 2.84348864994026  0.0814663951120163 2.79569892473118  C 1.09708078750849 1.90681003584229  2.30549898167006 1.21863799283154  3.70672097759674 0.731182795698925  C 5.10794297352342 0.243727598566308  6.53903598099117 0  8 0  C 9.46096401900883 0  10.8920570264766 0.243727598566308  12.2932790224033 0.731182795698925  C 13.6945010183299 1.21863799283154  14.9029192124915 1.90681003584229  15.918533604888 2.79569892473118  C 15.9728445349627 2.84348864994026  16 2.8984468339307  16 2.96057347670251  C 16 3.04659498207885  15.7949762389681 3.26881720430108  15.3849287169043 3.62724014336918  Z " fill-rule="nonzero" fill="#666666" stroke="none" transform="matrix(1 0 0 1 83 5 )" />
  </g>
</svg>