<?xml version="1.0" encoding="utf-8"?>
<svg version="1.1" xmlns:xlink="http://www.w3.org/1999/xlink" width="4px" height="5px" xmlns="http://www.w3.org/2000/svg">
  <g transform="matrix(1 0 0 1 -98 -438 )">
    <path d="M 1.99607843137255 2.04797297297297  L 3.3356862745098 0.00405405405405397  L 3.98980392156863 0.00405405405405397  L 2.35137254901961 2.5  L 3.75607843137255 2.5  L 3.75607843137255 2.89662162162162  L 2.27843137254902 2.89662162162162  L 2.27843137254902 3.41824324324324  L 3.75529411764706 3.41824324324324  L 3.75529411764706 3.82162162162162  L 2.27843137254902 3.82162162162162  L 2.27843137254902 4.99662162162162  L 1.71372549019608 4.99662162162162  L 1.71372549019608 3.82094594594595  L 0.252549019607843 3.82094594594595  L 0.252549019607843 3.41756756756757  L 1.71372549019608 3.41756756756757  L 1.71372549019608 2.89594594594595  L 0.252549019607843 2.89594594594595  L 0.252549019607843 2.5  L 1.64078431372549 2.5  L 0.0101960784313725 0.00405405405405397  L 0.672156862745098 0.00405405405405397  L 1.99607843137255 2.04797297297297  Z " fill-rule="nonzero" fill="#7f7f7f" stroke="none" transform="matrix(1 0 0 1 98 438 )" />
  </g>
</svg>