<?xml version="1.0" encoding="utf-8"?>
<svg version="1.1" xmlns:xlink="http://www.w3.org/1999/xlink" width="20px" height="20px" xmlns="http://www.w3.org/2000/svg">
  <g transform="matrix(1 0 0 1 -35 -794 )">
    <path d="M 20 10.1375  C 20 9.58749999999998  19.625 9.17499999999995  19.125 9.17499999999995  L 18.75 9.17499999999995  L 10.375 0.237499999999955  C 10.125 -0.0375000000000227  9.875 -0.0375000000000227  9.625 0.237499999999955  L 1.125 9.17499999999995  L 0.875 9.17499999999995  C 0.375 9.17499999999995  0 9.58749999999998  0 10.1375  L 0 10.9625  C 0 11.5125  0.375 11.925  0.875 11.925  L 3.125 11.925  L 3.125 18.25  C 3.125 18.8  3.5 19.2125  4 19.2125  L 7.625 19.2125  C 8.125 19.2125  8.5 18.8  8.5 18.25  L 8.5 13.1625  L 11.5 13.1625  L 11.5 18.25  C 11.5 18.8  11.875 19.2125  12.375 19.2125  L 16 19.2125  C 16.5 19.2125  16.875 18.8  16.875 18.25  L 16.875 11.925  L 19.125 11.925  C 19.625 11.925  20 11.5125  20 10.9625  L 20 10.1375  Z " fill-rule="nonzero" fill="#333333" stroke="none" transform="matrix(1 0 0 1 35 794 )" />
  </g>
</svg>