<?xml version="1.0" encoding="utf-8"?>
<svg version="1.1" xmlns:xlink="http://www.w3.org/1999/xlink" width="17px" height="20px" xmlns="http://www.w3.org/2000/svg">
  <g transform="matrix(1 0 0 1 -319 -793 )">
    <path d="M 16.4245928406085 14.2310281799832  C 16.4977919697972 14.8760485177222  16.5343915343915 15.5616496051866  16.5343915343915 16.2878314423763  C 16.5343915343915 17.2190528571252  16.2652770888448 18.0178528780339  15.7270481977514 18.6842315051019  C 15.1888193066578 19.35061013217  14.5407917217814 19.6837994457042  13.7829654431217 19.6837994457042  L 2.75142609126976 19.6837994457042  C 1.99359981261023 19.6837994457042  1.3455722277339 19.35061013217  0.807343336640201 18.6842315051019  C 0.269114445546734 18.0178528780339  0 17.2190528571252  0 16.2878314423763  C 0 15.5616496051866  0.0365995645943258 14.8760485177222  0.109798693782977 14.2310281799832  C 0.182997822971856 13.5860078422443  0.318631503527399 12.9367158466396  0.51669973544972 12.2831521931689  C 0.714767967372154 11.6295885396983  0.966659088403844 11.0700013592757  1.2723730985449 10.6043906519012  C 1.57808710868619 10.1387799445267  1.98283523478847 9.75860239446843  2.48661747685196 9.46385800172675  C 2.99039971891534 9.16911360898507  3.56953400573195 9.02174141261457  4.22402033730157 9.02174141261457  C 5.35214809303352 10.1152858262647  6.69987323633177 10.6620580330898  8.26719576719586 10.6620580330898  C 9.83451829805983 10.6620580330898  11.1822434413581 10.1152858262647  12.31037119709 9.02174141261457  C 12.9648575286596 9.02174141261457  13.5439918154761 9.16911360898507  14.0477740575398 9.46385800172675  C 14.5515562996031 9.75860239446843  14.9563044257054 10.1387799445267  15.2620184358467 10.6043906519012  C 15.5677324459876 11.0700013592757  15.8196235670194 11.6295885396983  16.0176917989418 12.2831521931689  C 16.2157600308641 12.9367158466396  16.3513937114197 13.5860078422443  16.4245928406085 14.2310281799832  Z M 11.7742952215609 1.44168452971462  C 12.7431072255292 2.40280754952437  13.2275132275133 3.56256266009495  13.2275132275133 4.92094986142592  C 13.2275132275133 6.27933706275712  12.7431072255292 7.43909217332771  11.7742952215609 8.40021519313746  C 10.8054832175927 9.3613382129472  9.63645006613763 9.84189972285208  8.26719576719586 9.84189972285208  C 6.89794146825398 9.84189972285208  5.72890831679888 9.3613382129472  4.76009631283057 8.40021519313746  C 3.79128430886237 7.43909217332771  3.30687830687816 6.27933706275712  3.30687830687816 4.92094986142592  C 3.30687830687816 3.56256266009495  3.79128430886237 2.40280754952437  4.76009631283057 1.44168452971462  C 5.72890831679888 0.480561509904874  6.89794146825398 0  8.26719576719586 0  C 9.63645006613763 0  10.8054832175927 0.480561509904874  11.7742952215609 1.44168452971462  Z " fill-rule="nonzero" fill="#333333" stroke="none" transform="matrix(1 0 0 1 319 793 )" />
  </g>
</svg>