<?xml version="1.0" encoding="utf-8"?>
<svg version="1.1" xmlns:xlink="http://www.w3.org/1999/xlink" width="22px" height="20px" xmlns="http://www.w3.org/2000/svg">
  <g transform="matrix(1 0 0 1 -223 -794 )">
    <path d="M 4.50420167410715 16.6123499041863  L 4.50420167410715 5.5574614165684  C 4.50002730427057 5.26087232030219  4.61549232717956 4.97557147745703  4.82352942817752 4.76843912146227  C 5.02659883117794 4.56152044018863  5.30128683861876 4.44445455258414  5.58823528098739 4.4425385834316  L 20.7647058856355 4.44253858343161  C 21.3647578833137 4.44724950926224  21.8487572661123 4.94504031545249  21.8487394925158 5.5574614165684  L 21.8487394925158 16.6123499041863  C 21.8441661885334 17.2214243998329  21.3614965259077 17.7140289440221  20.7647058856355 17.718696381191  L 12.0924369583771 17.718696381191  L 7.73109244025735 19.9313893720519  L 7.73109244025735 17.718696381191  L 5.5882352809874 17.718696381191  C 4.99144464071519 17.7140289440221  4.50877497808953 17.2214243998329  4.50420167410715 16.6123499041863  Z M 7.75630253085609 10.531732421875  L 7.73109244025735 10.531732421875  L 7.73109244025735 11.6295025795991  C 7.73104797283329 11.632383833313  7.73102573808713 11.635265399741  7.73102573808713 11.6381470108448  C 7.73102573808713 11.9412878591338  7.97181376444331 12.1870320712811  8.26884084772474 12.1870320712811  C 8.2716643423022 12.1870320712811  8.27448779310463 12.187009378873  8.2773109375 12.1869639961674  L 9.41176468946954 12.1869639961674  C 9.41458783386474 12.187009378873  9.41741128466751 12.1870320712811  9.4202347792448 12.1870320712811  C 9.71726186252623 12.1870320712811  9.95804988888241 11.9412878591338  9.95804988888241 11.6381470108448  C 9.95804988888241 11.6352653997409  9.95802765413625 11.632383833313  9.95798318671218 11.6295025795991  L 9.95798318671218 10.531732421875  C 9.95798318671218 10.2238549828852  9.71343283557215 9.97427100530661  9.41176468946954 9.97427100530661  L 8.30252099199055 9.97427100530661  C 8.15777100084835 9.97502444302437  8.01904538875113 10.0335035637709  7.91596638983718 10.1372212558962  C 7.81109441468236 10.2401960678405  7.75320175657445 10.3832422161518  7.75630253085609 10.531732421875  Z M 12.0924369583771 10.531732421875  L 12.0672269038866 10.531732421875  L 12.0672269038866 11.6295025795991  C 12.0671824364685 11.6323838331194  12.0671602017253 11.635265399354  12.0671602017253 11.6381470102642  C 12.0671602017253 11.9412878585532  12.3079482280815 12.1870320707006  12.6049753113629 12.1870320707006  C 12.6077987938996 12.1870320707006  12.6106222326619 12.1870093784859  12.613445365021 12.1869639961674  L 13.6890756204044 12.1869639961674  C 13.6918987647996 12.187009378873  13.6947222156024 12.1870320712811  13.6975457101797 12.1870320712811  C 13.9945727934611 12.1870320712811  14.2353608198173 11.9412878591338  14.2353608198173 11.6381470108448  C 14.2353608198173 11.6352653997411  14.2353385850711 11.6323838333129  14.2352941176471 11.6295025795991  L 14.2352941176471 10.531732421875  C 14.2352941176471 10.2238549828852  13.990743766507 9.97427100530661  13.6890756204044 9.97427100530661  L 12.6386554556197 9.97427100530661  C 12.4939054644775 9.97502444302437  12.3551798523803 10.0335035637709  12.2521008534664 10.1372212558962  C 12.1472288650291 10.2401960614596  12.0893361934925 10.3832422106016  12.0924369583771 10.531732421875  Z M 16.4285714220063 10.531732421875  L 16.4033613314076 10.531732421875  L 16.4033613314076 11.6295025795991  C 16.4033168639835 11.632383833313  16.4032946292373 11.6352653997409  16.4032946292373 11.6381470108448  C 16.4032946292373 11.9412878591338  16.6440826555935 12.1870320712811  16.9411097388749 12.1870320712811  C 16.9439332334524 12.1870320712811  16.9467566842548 12.187009378873  16.9495798286502 12.1869639961674  L 18.0252100840336 12.1869639961674  C 18.0280332284288 12.187009378873  18.0308566792316 12.1870320712811  18.0336801738089 12.1870320712811  C 18.3307072570903 12.1870320712811  18.5714952834465 11.9412878591338  18.5714952834465 11.6381470108448  C 18.5714952834465 11.6352653997411  18.5714730487003 11.6323838333129  18.5714285812763 11.6295025795991  L 18.5714285812763 10.531732421875  C 18.5714285812763 10.2238549828852  18.3268782301362 9.97427100530661  18.0252100840336 9.97427100530661  L 16.974789919249 9.97427100530661  C 16.8300399155875 9.97502443342134  16.6913142888304 10.0335035548851  16.5882352809874 10.1372212558962  C 16.4833633058326 10.2401960678405  16.4254706477247 10.3832422161518  16.4285714220063 10.531732421875  Z M 17.5126050288866 1.13207547169811  L 17.487394974396 3.33619210642689  L 4.50420167410715 3.33619210642689  C 4.21725322435124 3.33810805612484  3.94256520293858 3.45517393091885  3.73949578518907 3.66209260760613  C 3.53145868828659 3.8692249787133  3.41599367797389 4.15452583602006  3.42016806722689 4.45111493956368  L 3.42016806722689 14.3996569501769  L 1.25210085346639 14.3996569501769  C 0.655310199093227 14.3949895330322  0.172640514718401 13.9023849830545  0.168067210477941 13.2933104731722  L 0.168067210477942 1.13207547169812  C 0.16389284064137 0.835486375431906  0.279357863550358 0.550185532586747  0.48739496454832 0.343053176591984  C 0.690464382297822 0.136134499904699  0.965152403710489 0.0190686251106919  1.25210085346639 0  L 16.4285714220063 0  C 17.0286234056057 0.0218636011334317  17.5126227826486 0.519654384950643  17.5126050288866 1.13207547169811  Z " fill-rule="nonzero" fill="#000000" stroke="none" transform="matrix(1 0 0 1 223 794 )" />
  </g>
</svg>