<?xml version="1.0" encoding="utf-8"?>
<svg version="1.1" xmlns:xlink="http://www.w3.org/1999/xlink" width="14px" height="13px" xmlns="http://www.w3.org/2000/svg">
  <g transform="matrix(1 0 0 1 -1154 -484 )">
    <path d="M 7.11988391437861 7.08573540211397  C 7.09023695131864 7.05836220243566  7.05882704344292 7.03270076401654  7.02343831963512 7.00208740693934  C 6.55961637238078 7.43006311925551  6.10038784320809 7.85363711282169  5.64136957640896 8.27740979549632  C 4.01209735368497 9.78153000344669  2.37967117955202 11.2826240222886  0.757402291817196 12.7934843658088  C 0.534411276192196 13.0011600379136  0.15906113845737 12.963409152114  0.0763958137644506 12.6632667681526  C 0.0339228775289015 12.5090689648438  0.100818555816474 12.3898251056985  0.216317133309248 12.2835265820312  C 0.971707873464595 11.5882379813879  1.72552973040101 10.8914210144761  2.47975592711344 10.1950014257812  C 3.75692007315751 9.01573743221507  5.03400334176301 7.83639702780331  6.31123218027457 6.6571941808364  C 6.3647843140354 6.60775122587316  6.4194362671604 6.55937814223346  6.51101348898121 6.47673888671875  C 6.45624830428107 6.44351199793199  6.40240504651373 6.42165622587316  6.36328012328396 6.38557129365809  C 4.32077822886561 4.50160391544118  2.27987757180275 2.61610815602022  0.237310984916907 0.732232482766544  C 0.119920061867775 0.623962362132353  0.035976962156792 0.508279612821691  0.0718994422868499 0.346608049172794  C 0.130012639992775 0.0850418658088234  0.455902675668353 -0.0252915716911766  0.678570197344653 0.141515335477941  C 0.744398394598989 0.190836012178309  0.802382207369942 0.249647898667279  0.862695075415463 0.30534190602022  C 2.88080656611272 2.16850808938419  4.89874013276734 4.03184240349265  6.91681928513367 5.89505443933824  C 6.95012155437139 5.92580535386029  6.98475010612356 5.95527242876838  7.02712599575506 5.99274819967831  C 7.06998710260116 5.95440126148897  7.11042212337428 5.91918748161765  7.1497411240065 5.88288856617647  C 9.19128875316113 3.9980347265625  11.2330142905527 2.11333373851103  13.2735429461705 0.227471174172794  C 13.3927291839776 0.117321146599265  13.5160559767883 0.0297452366727939  13.6947949105853 0.0718214154411764  C 13.9788266121749 0.138672556295956  14.0838606100975 0.450002661994485  13.888688888638 0.658916306295956  C 13.7958824467124 0.758260711167279  13.6897324444545 0.846524408318014  13.589194833815 0.939373219209559  C 11.6148501919256 2.76248068818934  9.64044087337428 4.58552701056985  7.66619327808887 6.40874146369485  C 7.63630371432442 6.43634392578125  7.60838738936055 6.46584157398897  7.56272816338512 6.51114263097426  C 7.62221615110188 6.55968383042279  7.68104101336705 6.60272289636948  7.7339138367052 6.65152391659007  C 9.75574535765896 8.51742589499081  11.7770269373194 10.3838627941176  13.7983732410585 12.2502538556985  C 13.8251897466582 12.2750135386029  13.8527179010116 12.299177154182  13.8780463850253 12.325266529182  C 14.0251327944364 12.4767896840533  14.0249225320629 12.687353972886  13.8781919549314 12.8271239119945  C 13.7342433119581 12.9642497610294  13.5012729339776 12.9716318164062  13.3461157085441 12.8321522713695  C 13.0541102217305 12.5696690533088  12.7681699896134 12.3011640452665  12.4799006864162 12.0349821599265  C 10.6932230288114 10.3852230595129  8.90664243361633 8.7354028125  7.11988391437861 7.08573540211397  Z " fill-rule="nonzero" fill="#333333" stroke="none" transform="matrix(1 0 0 1 1154 484 )" />
  </g>
</svg>