<?xml version="1.0" encoding="utf-8"?>
<svg version="1.1" xmlns:xlink="http://www.w3.org/1999/xlink" width="40px" height="40px" xmlns="http://www.w3.org/2000/svg">
  <g transform="matrix(1 0 0 1 -1017 -506 )">
    <path d="M 40 20.03515625  C 40 9.0078125  31.0625 0.0703125  20.03515625 0.0703125  C 9.0078125 0.0703125  0.0703125 9.0078125  0.0703125 20.03515625  C 0.0703125 31.0625  9.0078125 40  20.03515625 40  C 31.0625 40  40 31.0625  40 20.03515625  Z M 20.1328125 22.734375  C 21.1953125 22.734375  22.06640625 23.60546875  22.06640625 24.66796875  C 22.06640625 25.73046875  21.1953125 26.6015625  20.1328125 26.6015625  L 19.9375 26.6015625  C 18.875 26.6015625  18.00390625 25.73046875  18.00390625 24.66796875  C 18.00390625 23.60546875  18.875 22.734375  19.9375 22.734375  L 20.1328125 22.734375  Z M 22 7.921875  L 22 19.25390625  C 22.23046875 20.1484375  21.5 20.87890625  20.60546875 20.87890625  L 19.46484375 20.87890625  C 18.5703125 20.87890625  17.83984375 20.1484375  18 19.25390625  L 18 7.921875  C 17.83984375 7.02734375  18.5703125 6.296875  19.46484375 6.296875  L 20.60546875 6.296875  C 21.5 6.296875  22.23046875 7.02734375  22 7.921875  Z " fill-rule="nonzero" fill="#8a8a8a" stroke="none" transform="matrix(1 0 0 1 1017 506 )" />
  </g>
</svg>