<?xml version="1.0" encoding="utf-8"?>
<svg version="1.1" xmlns:xlink="http://www.w3.org/1999/xlink" width="16px" height="11px" xmlns="http://www.w3.org/2000/svg">
  <g transform="matrix(1 0 0 1 -192 -677 )">
    <path d="M 6.69830508474576 10.6646341463415  C 6.50847457627118 10.8658536585366  6.22372881355932 10.9731707317073  5.95254237288135 10.9731707317073  C 5.68135593220339 10.9731707317073  5.39661016949152 10.8658536585366  5.17966101694915 10.6646341463415  L 0.379661016949152 5.91585365853659  C -0.0406779661016965 5.5  -0.0406779661016965 4.81585365853659  0.379661016949152 4.4  C 0.8 3.98414634146342  1.49152542372881 3.98414634146342  1.91186440677966 4.4  L 5.93898305084746 8.38414634146342  L 14.0610169491525 0.348780487804879  C 14.4813559322034 -0.0670731707317064  15.1728813559322 -0.0670731707317064  15.593220338983 0.348780487804879  C 16.0135593220339 0.764634146341466  16.0135593220339 1.44878048780488  15.593220338983 1.86463414634146  L 6.69830508474576 10.6646341463415  Z " fill-rule="nonzero" fill="#000000" stroke="none" transform="matrix(1 0 0 1 192 677 )" />
  </g>
</svg>