<?xml version="1.0" encoding="utf-8"?>
<svg version="1.1" xmlns:xlink="http://www.w3.org/1999/xlink" width="7px" height="7px" xmlns="http://www.w3.org/2000/svg">
  <g transform="matrix(1 0 0 1 -789 -386 )">
    <path d="M 6.61126901726974 1.77457339638158  C 7.02556280838816 1.35560238486842  7.03972039473684 0.739360608552632  6.65411955180921 0.343973581414475  C 6.25911030016447 -0.0610557154605253  5.63482730263158 -0.0582134046052622  5.205908203125 0.361603104440791  C 4.73707082648026 0.820474403782895  4.275537109375 1.28682925575658  3.81384148848684 1.75293225740132  C 3.70452045641447 1.86331465871711  3.60728824013158 1.98567793996711  3.49739155016447 2.11061369243421  C 3.39004934210526 2.00787674753289  3.32392064144737 1.94682103207237  3.2602384868421 1.88326480263158  C 2.74304584703947 1.36697162828947  2.23218544407895 0.844130345394737  1.70750925164474 0.335572574013159  C 1.29942177220395 -0.0599763569078937  0.682136615953946 -0.0510176809210517  0.295852179276316 0.336202199835528  C -0.0883454975328945 0.721353310032896  -0.0896047491776326 1.33968184621711  0.305206620065788 1.74841694078947  C 0.668626644736841 2.12468133223684  1.04127518503289 2.49214895148026  1.4145353618421 2.85873509457237  C 1.62635947779605 3.06678145559211  1.84753803453947 3.26527549342105  2.07337582236842 3.47636204769737  C 1.98112664473684 3.57546515213816  1.92751850328947 3.63661081414474  1.87020456414474 3.69403268914474  C 1.36567639802632 4.19953227796053  0.850966282894736 4.69540758634869  0.361315275493421 5.21488486842105  C 0.214630448190789 5.37051038240132  0.0891190378289476 5.57951017680921  0.038011410361842 5.78496607730263  C -0.07177734375 6.22624383223685  0.147242495888158 6.64516087582237  0.536854954769737 6.85207391036184  C 0.918444181743421 7.05472347861842  1.38294613486842 6.99339792351974  1.70867855674342 6.67509508634869  C 2.23724043996711 6.15856805098685  2.75554841694079 5.63153525904606  3.27882144325658 5.10955746299342  C 3.34083059210526 5.04767423930921  3.40667146381579 4.98965871710527  3.48049958881579 4.92074167351974  C 4.062939453125 5.50508840460527  4.62300061677632 6.07194952713816  5.18880037006579 6.63309004934211  C 5.62077765213816 7.06150544819079  6.23182051809211 7.07931486430921  6.63701171875 6.68401778371711  C 7.04587273848684 6.2851228412829  7.02952045641447 5.65797954358553  6.5934236225329 5.21797902960527  C 6.08484786184211 4.7048159950658  5.57209858141448 4.19579050164474  5.06186780427632 3.68424650493421  C 5.00536338404605 3.62758018092106  4.95357216282895 3.56623663651316  4.88926038240132 3.49577251233553  C 5.47339124177632 2.91250513980264  6.04555921052632 2.34672337582237  6.61126901726974 1.77455540707237  Z " fill-rule="nonzero" fill="#f2f2f2" stroke="none" transform="matrix(1 0 0 1 789 386 )" />
  </g>
</svg>