<?xml version="1.0" encoding="utf-8"?>
<svg version="1.1" xmlns:xlink="http://www.w3.org/1999/xlink" width="15px" height="15px" xmlns="http://www.w3.org/2000/svg">
  <g transform="matrix(1 0 0 1 -784 -381 )">
    <path d="M 14.9461170543324 7.57905162464489  C 14.9761463512074 3.41841264204545  11.655595259233 0.0576615767045454  7.48924671519886 0.0319102894176136  C 3.39460893110795 0.00660844282670467  0.0308116566051135 3.340576171875  0.000432794744318242 7.45440673828125  C -0.0299294211647726 11.5627607865767  3.29250266335227 14.9466663707386  7.38773970170455 14.9784102006392  C 11.5321821732955 15.010536887429  14.9163873845881 11.6975430575284  14.9461170543324 7.57905162464489  Z M 13.5623890269886 7.48934659090909  C 13.5676158558239 10.8591197620739  10.8455200195313 13.5850608132102  7.46584250710227 13.5944990678267  C 4.13308993252841 13.6037875088778  1.3927001953125 10.8672762784091  1.38374467329545 7.52100719105114  C 1.374755859375 4.16531649502841  4.10382634943182 1.42193048650568  7.45721990411932 1.41570490056818  C 10.8156904740767 1.40946266867898  13.5571954900568 4.13681862571023  13.5623890269886 7.48934659090909  Z " fill-rule="nonzero" fill="#f2f2f2" stroke="none" transform="matrix(1 0 0 1 784 381 )" />
  </g>
</svg>