<?xml version="1.0" encoding="utf-8"?>
<svg version="1.1" xmlns:xlink="http://www.w3.org/1999/xlink" width="25px" height="25px" xmlns="http://www.w3.org/2000/svg">
  <g transform="matrix(1 0 0 1 -188 -671 )">
    <path d="M 1.38888888888889 12.5  C 1.38888888888889 6.375  6.375 1.38888888888889  12.5 1.38888888888889  C 18.625 1.38888888888889  23.6111111111111 6.375  23.6111111111111 12.5  C 23.6111111111111 18.625  18.625 23.6111111111111  12.5 23.6111111111111  C 6.375 23.6111111111111  1.38888888888889 18.625  1.38888888888889 12.5  Z M 25 12.5  C 25 5.59722222222222  19.4027777777778 0  12.5 0  C 5.59722222222222 0  0 5.59722222222222  0 12.5  C 0 19.4027777777778  5.59722222222222 25  12.5 25  C 19.4027777777778 25  25 19.4027777777778  25 12.5  Z " fill-rule="nonzero" fill="#000000" stroke="none" transform="matrix(1 0 0 1 188 671 )" />
  </g>
</svg>