<?xml version="1.0" encoding="utf-8"?>
<svg version="1.1" xmlns:xlink="http://www.w3.org/1999/xlink" width="80px" height="80px" xmlns="http://www.w3.org/2000/svg">
  <g transform="matrix(1 0 0 1 -531 -378 )">
    <path d="M 73.2338308457712 18.285203828125  C 72.1724710043532 19.504634296875  71.112888914801 20.725851484375  70.1261976057214 21.942601875  C 73.3589665992522 27.4050398140647  75.0617757450621 33.6443932867021  75.0543208177861 40  C 75.0543208177861 59.504634296875  59.2094802549751 75.4286990625  39.8018839396766 75.4286990625  C 20.3942876243781 75.4286990625  4.54855814676617 59.504634296875  4.54855814676617 40  C 4.54855814676617 20.495365703125  20.3933987095771 4.5713009375  39.8009950248756 4.5713009375  C 48.4827654535236 4.5593533130261  56.8590650613108 7.79079625183514  63.3029158893035 13.637967578125  C 64.4398331778607 12.647236171875  65.6531969060945 11.657398046875  66.865671641791 10.742601875  C 59.8157175839552 4.037967578125  50.2634787779851 0  39.8009950248756 0  C 17.8155565143035 0  0 17.904634296875  0 40  C 0 62.095365703125  17.8155565143035 80  39.8009950248756 80  C 61.7864335354478 80  79.6019900497513 62.095365703125  79.6019900497513 40  C 79.6093275818556 32.2957184570786  77.3976117754395 24.7539852201921  73.2338308457712 18.285203828125  Z " fill-rule="nonzero" fill="#ffffff" stroke="none" transform="matrix(1 0 0 1 531 378 )" />
  </g>
</svg>