<?xml version="1.0" encoding="utf-8"?>
<svg version="1.1" xmlns:xlink="http://www.w3.org/1999/xlink" width="12px" height="12px" viewBox="556 382  12 12" xmlns="http://www.w3.org/2000/svg">
  <path d="M 562 382  C 565.36 382  568 384.64  568 388  C 568 391.36  565.36 394  562 394  C 558.64 394  556 391.36  556 388  C 556 384.64  558.64 382  562 382  Z " fill-rule="nonzero" fill="#ffffff" stroke="none" />
  <path d="M 562 382.5  C 565.08 382.5  567.5 384.92  567.5 388  C 567.5 391.08  565.08 393.5  562 393.5  C 558.92 393.5  556.5 391.08  556.5 388  C 556.5 384.92  558.92 382.5  562 382.5  Z " stroke-width="1" stroke="#797979" fill="none" />
  <path d="M 562 391  C 560.32 391  559 389.68  559 388  C 559 386.32  560.32 385  562 385  C 563.68 385  565 386.32  565 388  C 565 389.68  563.68 391  562 391  " fill-rule="nonzero" fill="#797979" stroke="none" />
</svg>