<?xml version="1.0" encoding="utf-8"?>
<svg version="1.1" xmlns:xlink="http://www.w3.org/1999/xlink" width="12px" height="12px" viewBox="466 382  12 12" xmlns="http://www.w3.org/2000/svg">
  <path d="M 472 382  C 475.36 382  478 384.64  478 388  C 478 391.36  475.36 394  472 394  C 468.64 394  466 391.36  466 388  C 466 384.64  468.64 382  472 382  Z " fill-rule="nonzero" fill="#ffffff" stroke="none" />
  <path d="M 472 382.5  C 475.08 382.5  477.5 384.92  477.5 388  C 477.5 391.08  475.08 393.5  472 393.5  C 468.92 393.5  466.5 391.08  466.5 388  C 466.5 384.92  468.92 382.5  472 382.5  Z " stroke-width="1" stroke="#797979" fill="none" />
  <path d="M 472 391  C 470.32 391  469 389.68  469 388  C 469 386.32  470.32 385  472 385  C 473.68 385  475 386.32  475 388  C 475 389.68  473.68 391  472 391  " fill-rule="nonzero" fill="#797979" stroke="none" />
</svg>