<?xml version="1.0" encoding="utf-8"?>
<svg version="1.1" xmlns:xlink="http://www.w3.org/1999/xlink" width="12px" height="12px" viewBox="556 497  12 12" xmlns="http://www.w3.org/2000/svg">
  <path d="M 562 497  C 565.36 497  568 499.64  568 503  C 568 506.36  565.36 509  562 509  C 558.64 509  556 506.36  556 503  C 556 499.64  558.64 497  562 497  Z " fill-rule="nonzero" fill="#ffffff" stroke="none" />
  <path d="M 562 497.5  C 565.08 497.5  567.5 499.92  567.5 503  C 567.5 506.08  565.08 508.5  562 508.5  C 558.92 508.5  556.5 506.08  556.5 503  C 556.5 499.92  558.92 497.5  562 497.5  Z " stroke-width="1" stroke="#7f7f7f" fill="none" />
  <path d="M 562 506  C 560.32 506  559 504.68  559 503  C 559 501.32  560.32 500  562 500  C 563.68 500  565 501.32  565 503  C 565 504.68  563.68 506  562 506  " fill-rule="nonzero" fill="#7f7f7f" stroke="none" />
</svg>