<?xml version="1.0" encoding="utf-8"?>
<svg version="1.1" xmlns:xlink="http://www.w3.org/1999/xlink" width="20px" height="20px" xmlns="http://www.w3.org/2000/svg">
  <g transform="matrix(1 0 0 1 -298 -1013 )">
    <path d="M 18.2 6.53599609375  L 18.2 6.533984375  C 17.42 6.33  15.58599609375 6.333984375  12.9019921875 6.2619921875  C 13.03 5.67599609375  13.0580078125 5.1480078125  13.0580078125 4.2119921875  C 13.06 1.9719921875  11.4280078125 0  9.983984375 0  C 8.96400390625 0  8.12400390625 0.833984375000001  8.1119921875 1.8580078125  C 8.0980078125 3.11400390625  7.7119921875 5.283984375  5.61599609375 6.38599609375  C 5.4619921875 6.46599609375  5.02400390625 6.6819921875  4.96 6.7119921875  L 4.9919921875 6.74  C 4.64704337059779 6.43288076762079  4.20558328437505 6.25601208509576  3.74400390625 6.24  L 1.8719921875 6.24  C 0.83857906295538 6.24110876134699  0.00110876134699263 7.07857906295538  0 8.1119921875  L 0 18.1  C 0 19.1319921875  0.84 19.9719921875  1.8719921875 19.9719921875  L 3.74400390625 19.9719921875  C 4.46137467114039 19.9660777694296  5.11065278093644 19.5459602215806  5.41 18.89400390625  L 5.4380078125 18.90201171875  L 5.5880078125 18.9419921875  C 5.5980078125 18.9419921875  5.60400390625 18.94400390625  5.61599609375 18.9480078125  C 5.97599609375 19.0380078125  6.6680078125 19.2019921875  8.14599609375 19.5419921875  C 8.46599609375 19.61400390625  10.13798828125 19.9719921875  11.87400390625 19.9719921875  L 15.28599609375 19.9719921875  C 16.32599609375 19.9719921875  17.09599609375 19.58400390625  17.52 18.7680078125  C 17.936015625 18.043984375  19.9719921875 14.1580078125  19.97 8.68  C 19.97 7.8919921875  19.42400390625 6.88599609375  18.2 6.53599609375  Z M 4.3680078125 18.1  C 4.3680078125 18.44400390625  4.0880078125 18.72400390625  3.743984375 18.72400390625  L 1.87201171875 18.72400390625  C 1.52739150494557 18.7239931196772  1.24802734358119 18.4446202139732  1.24802734375 18.1  L 1.24802734375 8.1119921875  C 1.24802734375 7.7680078125  1.52802734375 7.4880078125  1.87201171875 7.4880078125  L 3.7440234375 7.4880078125  C 4.09001953125 7.4880078125  4.36802734375 7.7680078125  4.36802734375 8.1119921875  L 4.36802734375 18.1  Z M 18.72 8.68  C 18.72 8.89400390625  18.71599609375 8.863984375  18.7080078125 9.0719921875  C 18.4480078125 15.3419921875  16.42 18.18  16.42 18.18  C 16.23 18.52  15.9280078125 18.72400390625  15.28400390625 18.72400390625  L 11.87400390625 18.72400390625  C 10.16 18.72400390625  8.46 18.33599609375  8.41599609375 18.32400390625  C 5.82400390625 17.7280078125  5.6880078125 17.68201171875  5.52599609375 17.63599609375  L 5.61599609375 8.46599609375  C 5.61599609375 7.5180078125  5.63599609375 7.75798828125  5.61599609375 7.77  C 8.4680078125 6.59  9.33599609375 4  9.36 1.87400390625  C 9.36109357666682 1.52983005700137  9.63983005700138 1.25109357666682  9.98400390625 1.25  C 10.64400390625 1.25  11.81 2.57400390625  11.81 4.21400390625  C 11.81 5.69400390625  11.75 5.94798828125  11.2319921875 7.49  C 17.4719921875 7.49  17.43 7.58  17.98 7.723984375  C 18.663984375 7.92  18.72 8.48400390625  18.72 8.68  Z " fill-rule="nonzero" fill="#7f7f7f" stroke="none" transform="matrix(1 0 0 1 298 1013 )" />
  </g>
</svg>