<?xml version="1.0" encoding="utf-8"?>
<svg version="1.1" xmlns:xlink="http://www.w3.org/1999/xlink" width="20px" height="20px" xmlns="http://www.w3.org/2000/svg">
  <g transform="matrix(1 0 0 1 -236 -1013 )">
    <path d="M 16.1576354795259 19.3650793728299  C 15.7241379310345 19.7619047580295  15.2512315463362 19.9206349283854  14.7389162446121 19.9206349283854  C 13.5172413793103 19.9206349283854  12.1379310344828 19.0873015950521  11.1133004849138 18.4523809407552  C 10.6798029364224 18.1746031629774  10.2068965517241 17.8968253851997  9.97044334590517 17.8174603135851  C 9.7339901400862 17.8571428493924  9.22167486530172 18.1746031629774  8.74876848060345 18.4523809407552  C 7.40886699892241 19.2460317382813  5.39901478987069 20.4761904568142  3.86206896551724 19.2857142740885  C 2.67980296336207 18.4126984049479  2.95566503232759 16.7460317382813  3.2315271012931 15.1587301703559  C 3.34975369073276 14.3650793728299  3.50738917025862 13.4920635036892  3.42857141702586 12.8571428493924  C 3.31034482758621 12.5793650716146  2.75862068965517 11.9841269802517  2.28571427801724 11.4682539605035  C 1.22167486530173 10.3968253851996  0.0394088631465523 9.16666666666666  0.118226589439656 8.05555555555555  C 0.236453178879311 6.03174603949653  2.00985220905172 5.75396826171875  3.74384237607759 5.51587301974826  C 4.49261085668104 5.39682541232639  5.24137931034483 5.31746031358507  5.95073892780173 5.07936507161458  C 6.26600985991379 4.60317458767361  6.54187192887931 4.00793649631076  6.81773399784483 3.41269840494792  C 7.56650247844828 1.82539680989583  8.35467982219828 0.158730143229165  9.93103448275862 0.119047607421873  C 11.8226601023707 0.0396825358072893  12.5714285829741 1.98412698025173  13.2019704471983 3.53174603949653  C 13.4778325161638 4.20634920247396  13.7142857219828 4.80158732096354  13.9901477909483 5.11904760742187  C 14.3054187230603 5.31746031358507  15.0541872036638 5.43650792100694  15.763546794181 5.51587301974826  C 17.4187192079741 5.71428572591146  19.7044334859914 6.03174603949653  19.8620689655172 8.09523809136284  C 19.9802955549569 9.40476190863715  18.9950738954741 10.3571428493924  18.0098522090517 11.3888888888889  C 17.5369457974138 11.8650793728299  17.0246305226293 12.3809523925781  16.5911330010776 12.976190483941  C 16.5123152747845 13.1746031901042  16.5911330010776 13.8095238172743  16.6305418642241 14.3650793728299  C 16.8275862068966 16.1507936469184  17.1034482758621 18.4126984320746  16.1576354795259 19.3650793728299  Z M 8.35467979525862 17.8571428493924  C 9.02463052262931 17.3809523654514  9.5369457974138 17.0634920518663  10.0098522090517 17.0634920518663  C 10.4039408674569 17.1428571234809  10.8768472790948 17.4206349012587  11.5073891702586 17.7777777777778  C 12.7684729256466 18.5317460394965  14.6995074084052 19.6825396864149  15.6059113415948 18.769841281467  C 16.2758620689655 18.0952381184896  16.0394088900862 15.9126984320746  15.8817734105603 14.4444444444444  C 15.7635468211207 13.4523809407552  15.7241379310345 12.9365079481337  15.8029556573276 12.6190476074219  L 15.8029556573276 12.5396825358073  L 15.8423645204741 12.5  C 16.3152709321121 11.8253968370226  16.8669950700431 11.269841281467  17.3793103448276 10.7539682617187  C 18.2857142780172 9.80158732096354  19.0738916217672 9.0079365234375  18.9950738954741 8.05555555555555  C 18.8768473060345 6.74603173828125  17.4581280711207 6.46825396050347  15.6059113415948 6.23015871853298  C 14.6995074084052 6.11111111111111  13.9113300646552 5.9920634765625  13.4778325161638 5.67460316297743  L 13.3990147898707 5.63492062717014  C 13.0049261314655 5.23809524197048  12.7290640625 4.56349205186632  12.4137931034483 3.76984128146701  C 11.8620689655172 2.42063492838542  11.2315271012931 0.873015896267361  9.93103448275862 0.873015869140624  L 9.89162561961207 0.873015869140624  C 8.82758620689656 0.912698404947916  8.15763547952587 2.26190475802951  7.48768472521552 3.73015871853299  C 7.17241379310345 4.36507934570312  6.85714286099138 5.03968253580729  6.50246306573276 5.59523809136285  L 6.4236453125 5.71428572591146  L 6.30541872306035 5.75396826171875  C 5.4778325161638 6.03174603949653  4.65024630926725 6.19047620985243  3.82266010237069 6.30952381727431  C 1.97044334590518 6.58730159505208  0.945812823275867 6.78571430121528  0.866995070043107 8.09523809136285  C 0.827586206896555 8.8492063530816  1.97044334590518 10.0396825358073  2.83743841594828 10.9126984049479  C 3.50738914331897 11.6269841308594  4.05911328125 12.1825396864149  4.21674876077587 12.6587301703559  L 4.21674876077587 12.7380952419705  C 4.29556648706897 13.5317460394965  4.17733989762931 14.4444444444444  4.01970444504311 15.3174603135851  C 3.78325123922414 16.7460317382813  3.58620689655173 18.1349206271701  4.33497537715518 18.730158718533  C 5.4778325161638 19.6031745876736  7.0541872036638 18.6111111111111  8.35467979525862 17.8571428493924  Z " fill-rule="nonzero" fill="#7f7f7f" stroke="none" transform="matrix(1 0 0 1 236 1013 )" />
  </g>
</svg>