<?xml version="1.0" encoding="utf-8"?>
<svg version="1.1" xmlns:xlink="http://www.w3.org/1999/xlink" width="8px" height="8px" xmlns="http://www.w3.org/2000/svg">
  <g transform="matrix(1 0 0 1 -269 -93 )">
    <path d="M 7.96085106382979 4  C 7.96085106382979 1.81276595744681  6.18723404255319 0.0391489361702128  4 0.0391489361702128  C 1.81276595744681 0.0391489361702128  0.0391489361702128 1.81276595744681  0.0391489361702128 4  C 0.0391489361702128 6.18723404255319  1.81276595744681 7.96085106382979  4 7.96085106382979  C 6.18723404255319 7.96085106382979  7.96085106382979 6.18723404255319  7.96085106382979 4  Z M 4.55148936170213 1.26978723404255  L 4.55148936170213 6.73021276595745  L 3.87914893617021 6.73021276595745  L 3.87914893617021 2.15829787234043  C 3.38723404255319 2.60936170212766  2.66042553191489 2.77446808510638  2.66042553191489 2.77446808510638  L 2.66042553191489 2.12085106382979  C 3.62212765957447 1.84  4.29787234042553 1.26978723404255  4.29787234042553 1.26978723404255  L 4.55148936170213 1.26978723404255  Z " fill-rule="nonzero" fill="#d9001b" stroke="none" transform="matrix(1 0 0 1 269 93 )" />
  </g>
</svg>