<?xml version="1.0" encoding="utf-8"?>
<svg version="1.1" xmlns:xlink="http://www.w3.org/1999/xlink" width="6px" height="6px" xmlns="http://www.w3.org/2000/svg">
  <g transform="matrix(1 0 0 1 -37 -145 )">
    <path d="M 5.97063829787234 3  C 5.97063829787234 1.35957446808511  4.64042553191489 0.0293617021276596  3 0.0293617021276596  C 1.35957446808511 0.0293617021276596  0.0293617021276596 1.35957446808511  0.0293617021276596 3  C 0.0293617021276596 4.64042553191489  1.35957446808511 5.97063829787234  3 5.97063829787234  C 4.64042553191489 5.97063829787234  5.97063829787234 4.64042553191489  5.97063829787234 3  Z M 3.4136170212766 0.952340425531915  L 3.4136170212766 5.04765957446809  L 2.90936170212766 5.04765957446809  L 2.90936170212766 1.61872340425532  C 2.54042553191489 1.95702127659574  1.99531914893617 2.08085106382979  1.99531914893617 2.08085106382979  L 1.99531914893617 1.59063829787234  C 2.71659574468085 1.38  3.22340425531915 0.952340425531915  3.22340425531915 0.952340425531915  L 3.4136170212766 0.952340425531915  Z " fill-rule="nonzero" fill="#d9001b" stroke="none" transform="matrix(1 0 0 1 37 145 )" />
  </g>
</svg>