<?xml version="1.0" encoding="utf-8"?>
<svg version="1.1" xmlns:xlink="http://www.w3.org/1999/xlink" width="80px" height="80px" xmlns="http://www.w3.org/2000/svg">
  <g transform="matrix(1 0 0 1 -482 -1435 )">
    <path d="M 522 1435  C 544.4 1435  562 1452.6  562 1475  C 562 1497.4  544.4 1515  522 1515  C 499.6 1515  482 1497.4  482 1475  C 482 1452.6  499.6 1435  522 1435  Z " fill-rule="nonzero" fill="#ffffff" stroke="none" />
    <path d="M 522 1435.5  C 544.12 1435.5  561.5 1452.88  561.5 1475  C 561.5 1497.12  544.12 1514.5  522 1514.5  C 499.88 1514.5  482.5 1497.12  482.5 1475  C 482.5 1452.88  499.88 1435.5  522 1435.5  Z " stroke-width="1" stroke="#797979" fill="none" />
  </g>
</svg>