<?xml version="1.0" encoding="utf-8"?>
<svg version="1.1" xmlns:xlink="http://www.w3.org/1999/xlink" width="339px" height="100px" xmlns="http://www.w3.org/2000/svg">
  <g transform="matrix(1 0 0 1 -20 -288 )">
    <path d="M 20 288  L 359 288  L 359 388  L 20 388  L 20 288  " fill-rule="nonzero" fill="#cccccc" stroke="none" />
    <path d="M 27 295  L 352 295  L 352 381  L 27 381  L 27 295  " fill-rule="nonzero" fill="#ffffff" stroke="none" />
    <path d="M 203.78 318  C 199.58 318  196.28 314.7  196.28 310.5  C 196.28 306.3  199.58 303  203.78 303  C 207.98 303  211.28 306.3  211.28 310.5  C 211.28 314.7  207.98 318  203.78 318  " fill-rule="nonzero" fill="#cccccc" stroke="none" />
    <path d="M 30 379  L 30 334.45  L 110 314.2  L 222 364.663716814159  L 286 326.35  L 350 364.663716814159  L 350 379  L 30 379  " fill-rule="nonzero" fill="#169bd5" stroke="none" />
  </g>
</svg>