<?xml version="1.0" encoding="utf-8"?>
<svg version="1.1" xmlns:xlink="http://www.w3.org/1999/xlink" width="10px" height="10px" xmlns="http://www.w3.org/2000/svg">
  <g transform="matrix(1 0 0 1 -268 -449 )">
    <path d="M 9.1 3.267998046875  L 9.1 3.2669921875  C 8.71 3.165  7.792998046875 3.1669921875  6.45099609375 3.13099609375  C 6.515 2.837998046875  6.52900390625 2.57400390625  6.52900390625 2.10599609375  C 6.53 0.98599609375  5.71400390625 0  4.9919921875 0  C 4.482001953125 0  4.062001953125 0.4169921875  4.05599609375 0.92900390625  C 4.04900390625 1.557001953125  3.85599609375 2.6419921875  2.807998046875 3.192998046875  C 2.73099609375 3.232998046875  2.512001953125 3.34099609375  2.48 3.35599609375  L 2.49599609375 3.37  C 2.3235216852989 3.2164403838104  2.10279164218753 3.12800604254788  1.872001953125 3.12  L 0.93599609375 3.12  C 0.41928953147769 3.1205543806735  0.000554380673496316 3.53928953147769  0 4.05599609375  L 0 9.05  C 0 9.56599609375  0.42 9.98599609375  0.93599609375 9.98599609375  L 1.872001953125 9.98599609375  C 2.2306873355702 9.98303888471481  2.55532639046822 9.7729801107903  2.705 9.447001953125  L 2.71900390625 9.451005859375  L 2.79400390625 9.47099609375  C 2.79900390625 9.47099609375  2.802001953125 9.472001953125  2.807998046875 9.47400390625  C 2.987998046875 9.51900390625  3.33400390625 9.60099609375  4.072998046875 9.77099609375  C 4.232998046875 9.807001953125  5.068994140625 9.98599609375  5.937001953125 9.98599609375  L 7.642998046875 9.98599609375  C 8.162998046875 9.98599609375  8.547998046875 9.792001953125  8.76 9.38400390625  C 8.9680078125 9.0219921875  9.98599609375 7.07900390625  9.985 4.34  C 9.985 3.94599609375  9.712001953125 3.442998046875  9.1 3.267998046875  Z M 2.18400390625 9.05  C 2.18400390625 9.222001953125  2.04400390625 9.362001953125  1.8719921875 9.362001953125  L 0.936005859375 9.362001953125  C 0.763695752472787 9.36199655983861  0.624013671790596 9.22231010698662  0.624013671875 9.05  L 0.624013671875 4.05599609375  C 0.624013671875 3.88400390625  0.764013671875 3.74400390625  0.936005859375 3.74400390625  L 1.87201171875 3.74400390625  C 2.045009765625 3.74400390625  2.184013671875 3.88400390625  2.184013671875 4.05599609375  L 2.184013671875 9.05  Z M 9.36 4.34  C 9.36 4.447001953125  9.357998046875 4.4319921875  9.35400390625 4.53599609375  C 9.22400390625 7.67099609375  8.21 9.09  8.21 9.09  C 8.115 9.26  7.96400390625 9.362001953125  7.642001953125 9.362001953125  L 5.937001953125 9.362001953125  C 5.08 9.362001953125  4.23 9.167998046875  4.207998046875 9.162001953125  C 2.912001953125 8.86400390625  2.84400390625 8.841005859375  2.762998046875 8.817998046875  L 2.807998046875 4.232998046875  C 2.807998046875 3.75900390625  2.817998046875 3.878994140625  2.807998046875 3.885  C 4.23400390625 3.295  4.667998046875 2  4.68 0.937001953125  C 4.68054678833341 0.764915028500687  4.81991502850069 0.62554678833341  4.992001953125 0.625  C 5.322001953125 0.625  5.905 1.287001953125  5.905 2.107001953125  C 5.905 2.847001953125  5.875 2.973994140625  5.61599609375 3.745  C 8.73599609375 3.745  8.715 3.79  8.99 3.8619921875  C 9.3319921875 3.96  9.36 4.242001953125  9.36 4.34  Z " fill-rule="nonzero" fill="#7f7f7f" stroke="none" transform="matrix(1 0 0 1 268 449 )" />
  </g>
</svg>