<?xml version="1.0" encoding="utf-8"?>
<svg version="1.1" xmlns:xlink="http://www.w3.org/1999/xlink" width="11px" height="10px" xmlns="http://www.w3.org/2000/svg">
  <g transform="matrix(1 0 0 1 -325 -451 )">
    <path d="M 11 1.11111111111111  C 11 0.498263888888889  10.50671875 0  9.9 0  L 1.1 0  C 0.49328125 0  0 0.498263888888889  0 1.11111111111111  L 0 6.66666666666667  C 0 7.28125  0.49328125 7.77777777777778  1.1 7.77777777777778  L 1.1 10  L 3.3 7.77777777777778  L 9.9 7.77777777777778  C 10.5084375 7.77777777777778  11 7.27951388888889  11 6.66666666666667  L 11 1.11111111111111  Z M 10.44828125 6.6875  L 10.45 6.6875  C 10.45 6.98263888888889  10.2128125 7.22222222222222  9.920625 7.22222222222222  L 1.079375 7.22222222222222  C 0.7871875 7.22222222222222  0.55 6.98263888888889  0.55 6.6875  L 0.55 1.09027777777778  C 0.55 0.795138888888889  0.7871875 0.555555555555556  1.079375 0.555555555555556  L 9.91890625 0.555555555555556  C 10.21109375 0.555555555555556  10.44828125 0.795138888888889  10.44828125 1.09027777777778  L 10.44828125 6.6875  Z " fill-rule="nonzero" fill="#7f7f7f" stroke="none" transform="matrix(1 0 0 1 325 451 )" />
  </g>
</svg>