<?xml version="1.0" encoding="utf-8"?>
<svg version="1.1" xmlns:xlink="http://www.w3.org/1999/xlink" width="7px" height="1px" xmlns="http://www.w3.org/2000/svg">
  <g transform="matrix(1 0 0 1 -327 -454 )">
    <path d="M 1.16666666666667 0.5  C 1.16666666666667 0.2234375  0.905989583333333 0  0.583333333333333 0  C 0.260677083333333 0  0 0.2234375  0 0.5  C 0 0.776562499999999  0.260677083333333 0.999999999999999  0.583333333333333 0.999999999999999  C 0.905989583333333 0.999999999999999  1.16666666666667 0.776562499999999  1.16666666666667 0.5  Z M 4.08333333333333 0.5  C 4.08333333333333 0.2234375  3.82265625 0  3.5 0  C 3.17734375 0  2.91666666666667 0.2234375  2.91666666666667 0.5  C 2.91666666666667 0.776562499999999  3.17734375 0.999999999999999  3.5 0.999999999999999  C 3.82265625 0.999999999999999  4.08333333333333 0.776562499999999  4.08333333333333 0.5  Z M 7 0.5  C 7 0.2234375  6.73932291666667 0  6.41666666666667 0  C 6.09401041666667 0  5.83333333333333 0.2234375  5.83333333333333 0.5  C 5.83333333333333 0.776562499999999  6.09401041666667 0.999999999999999  6.41666666666667 0.999999999999999  C 6.73932291666667 0.999999999999999  7 0.776562499999999  7 0.5  Z " fill-rule="nonzero" fill="#7f7f7f" stroke="none" transform="matrix(1 0 0 1 327 454 )" />
  </g>
</svg>