<?xml version="1.0" encoding="utf-8"?>
<svg version="1.1" xmlns:xlink="http://www.w3.org/1999/xlink" width="12px" height="10px" xmlns="http://www.w3.org/2000/svg">
  <g transform="matrix(1 0 0 1 -210 -449 )">
    <path d="M 5.94466666666667 3.27978580990629  C 4.996064177288 3.2838344056692  4.22879149803932 4.05628185482114  4.22733333333333 5.0087014725569  C 4.22733333333333 5.95917001338688  5.00066666666667 6.73627844712182  5.94466666666667 6.73627844712182  C 6.89316229600927 6.73296590998203  7.66083848881464 5.96101031358377  7.66266666666667 5.0087014725569  C 7.66266666666667 4.05823293172691  6.88933333333333 3.28045515394913  5.94466666666667 3.28045515394913  Z M 3.36866666666667 4.99732262382865  C 3.37305885339922 3.57075411419394  4.5238044310705 2.41538706833924  5.94466666666667 2.41097724230254  C 7.36578924439833 2.41501974895594  8.51693925908642 3.57049382033974  8.52133333333333 4.99732262382865  C 8.51693925908642 6.42415142731756  7.36578924439833 7.57962549870136  5.94466666666667 7.58366800535475  C 4.5238044310705 7.57925817931805  3.37305885339922 6.42389113346335  3.36866666666667 4.99732262382865  Z M 6 0.925033467202142  C 3.17133333333333 0.925033467202142  0.857333333333333 3.4524765729585  0.857333333333333 4.9859437751004  C 0.857333333333333 6.52008032128514  3.17133333333333 9.04685408299866  6 9.04685408299866  C 8.74266666666667 9.04685408299866  11.1426666666667 6.47523427041499  11.1426666666667 4.9859437751004  C 11.1426666666667 3.49732262382865  8.74266666666667 0.92570281124498  6 0.92570281124498  Z M 6 0.0240963855421688  C 9.3 0.0240963855421688  12 3.04685408299866  12 4.98661311914324  C 12 6.92704149933066  9.3 9.94979919678715  6 9.94979919678715  C 2.7 9.94979919678715  0 6.92704149933066  0 4.98661311914324  C 0 3.04618473895582  2.7 0.0234270414993309  6 0.0234270414993309  Z " fill-rule="nonzero" fill="#7f7f7f" stroke="none" transform="matrix(1 0 0 1 210 449 )" />
  </g>
</svg>