<?xml version="1.0" encoding="utf-8"?>
<svg version="1.1" xmlns:xlink="http://www.w3.org/1999/xlink" width="13px" height="20px" xmlns="http://www.w3.org/2000/svg">
  <g transform="matrix(1 0 0 1 -345 -177 )">
    <path d="M 11.6182697884558 8.01771516216856  L 6.46760343929037 8.01771516216856  C 8.4634455427616 0.457630885613953  5.09247806448272 0.0715058735795452  5.09247806563684 0.0715058731849753  C 3.66375036542673 0.0715058731849753  3.95992339632162 1.23024885081282  3.85188167412405 1.4234493345565  C 3.85188167412405 5.12065841343119  0.0230672218128563 8.01774582228535  0 8.01774582346907  L 0 18.5024518757891  C 0.0230672225822695 19.5374128582702  1.39819259738992 19.9101386300505  1.93762392478989 19.9101386292614  L 9.67650833648497 19.9101386292614  C 10.4048482529001 19.9101386292614  10.9979416983162 17.9510900102588  10.9979416977391 17.9510900098643  C 12.9125282952918 11.2738531463068  12.9125282952918 9.28714751400726  12.9125282964459 9.28714751400726  C 12.9125581906368 7.90757770083649  11.6182697890329 8.01780714725379  11.6182697884558 8.01780714784565  Z " fill-rule="nonzero" fill="#7d7d7d" stroke="none" transform="matrix(1 0 0 1 345 177 )" />
  </g>
</svg>