<?xml version="1.0" encoding="utf-8"?>
<svg version="1.1" xmlns:xlink="http://www.w3.org/1999/xlink" width="13px" height="20px" xmlns="http://www.w3.org/2000/svg">
  <g transform="matrix(1 0 0 1 -339 -234 )">
    <path d="M 1.35251966145833 11.9721401589134  L 6.51539700520833 11.9721401589134  C 4.51484227430556 19.5286077769886  7.89379578993056 19.9145506480824  7.89379578993056 19.9145506480824  C 9.32593591579861 19.9145506480824  9.02904830729167 18.7563813478782  9.13735264756944 18.5633077059659  C 9.13735264756944 14.8678586647727  12.975239453125 11.9721401589134  13 11.9721401589134  L 13 1.49247265625  C 12.975239452908 0.458037642045456  11.5968406681858 0.0854720569957394  11.0561184027778 0.0854720569957394  L 3.2989111328125 0.0854720569957394  C 2.56885056423611 0.0854720569957394  1.97434251302083 2.04357628284801  1.97434251302083 2.04357628284801  C 0.0551992406684029 8.71761947354404  0.055199240451389 10.7034094682173  0.0551992406684029 10.7034094682173  C 0.0551770399305555 12.0823154518821  1.35251966145833 11.9721401589134  1.35251966145833 11.9721401589134  Z " fill-rule="nonzero" fill="#7f7f7f" stroke="none" transform="matrix(1 0 0 1 339 234 )" />
  </g>
</svg>