<?xml version="1.0" encoding="utf-8"?>
<svg version="1.1" xmlns:xlink="http://www.w3.org/1999/xlink" width="23px" height="23px" xmlns="http://www.w3.org/2000/svg">
  <g transform="matrix(1 0 0 1 -337 -81 )">
    <path d="M 11.4556901024196 22.8773827094235  C 8.39823001923163 22.8773827094235  5.52389865378595 21.6924079788899  3.36186882239814 19.5411534505121  C 1.19983899101033 17.3898989221343  0.0077150140882868 14.5259828257078  0.0077150140882868 11.4799923967977  C 0.0077150140882868 8.43400196788765  1.19909320631513 5.57173174113332  3.36112303770294 3.41967999463303  C 5.52315286909075 1.26762824813274  8.39696990026388 0.0834507357216325  11.4549443177244 0.0834507357216325  C 14.5129187351849 0.0834507357216325  17.3867357663581 1.2684254662552  19.5485084306096 3.41967999463303  C 21.7102810948611 5.57093452301087  22.9027136723467 8.43482490272373  22.9027136723467 11.4789894449662  C 22.9027136723467 14.5231539872087  21.7115412138289 17.3880987521803  19.5485598640369 19.540124781967  C 17.3855785142448 21.6921508117537  14.5132273357485 22.8773827094235  11.4557158191332 22.8773827094235  Z M 18.3949852408426 4.579143745248  C 16.5429703922358 2.73684981439241  14.0773290397603 1.71808220403417  11.4556901024196 1.71808220403417  C 8.83330538038374 1.71808220403417  6.36869269645333 2.73373809204347  4.5156491793014 4.57834652712554  C 2.66260566214947 6.42295496220761  1.64309226709603 8.87296055279753  1.64309226709603 11.4800181135113  C 1.64309226709603 14.0870756742251  2.66283711257212 16.5383671004964  4.51487767789257 18.3807124647793  C 6.36691824321303 20.2230578290621  8.83178809427971 21.2409767878707  11.4549443177244 21.2409767878707  C 14.0781005411691 21.2409767878707  16.5419417236907 20.2255780669976  18.3949852408426 18.3807124647793  C 20.2480287579945 16.5358468625609  21.267542153048 14.0860727223937  21.2667706516392 11.4790151616799  C 21.2659991502303 8.87198331767968  20.2470000894494 6.42143767610358  18.3949852408426 4.579143745248  Z M 17.1798448052239 10.6623552037211  L 12.2733787289235 10.6623552037211  L 12.2733787289235 5.75591484413435  C 12.2538340265665 5.30430363611968  11.8718636790554 4.9540677132251  11.4202781877544 4.97363813229572  C 10.9960809964667 4.99199986582584  10.6563889261595 5.33171765284673  10.6380014759157 5.75591484413435  L 10.6380014759157 10.6623294870075  L 5.73181828346527 10.6623294870075  C 5.28023279216423 10.6818999060781  4.92999686926965 11.0638702535892  4.94954157162664 11.5154557448902  C 4.96792902187039 11.9396272194642  5.30762109217765 12.2793192897715  5.7318440001789 12.2977067400152  L 10.6379757592021 12.2977067400152  L 10.6379757592021 17.204147099602  C 10.6575461782727 17.655732590903  11.0395165257838 18.0059685137976  11.4911020170848 17.9864238114406  C 11.9152734916588 17.9680363611968  12.2549655619661 17.6283185741759  12.2733530122098 17.2041213828883  L 12.2733530122098 12.2977324567288  L 17.1797933717966 12.2977324567288  C 17.6313788630976 12.3173285925131  18.0133492106087 11.9670926696185  18.0328939129657 11.5154814616038  C 18.0524900487499 11.0638702535892  17.7022284091417 10.6818999060781  17.2506172011271 10.6623552037211  C 17.2270289770607 10.6613294208854  17.2034073125766 10.6613294208854  17.1798190885102 10.6623552037211  Z " fill-rule="nonzero" fill="#7f7f7f" stroke="none" transform="matrix(1 0 0 1 337 81 )" />
  </g>
</svg>