<?xml version="1.0" encoding="utf-8"?>
<svg version="1.1" xmlns:xlink="http://www.w3.org/1999/xlink" width="250px" height="198px" xmlns="http://www.w3.org/2000/svg">
  <g transform="matrix(1 0 0 1 -425 -281 )">
    <path d="M 425 281  L 675 281  L 675 479  L 425 479  L 425 281  " fill-rule="nonzero" fill="#cccccc" stroke="none" />
    <path d="M 439 295  L 661 295  L 661 465  L 439 465  L 439 295  " fill-rule="nonzero" fill="#ffffff" stroke="none" />
    <path d="M 569.85 340.4  C 561.534 340.4  555 333.866  555 325.55  C 555 317.234  561.534 310.7  569.85 310.7  C 578.166 310.7  584.7 317.234  584.7 325.55  C 584.7 333.866  578.166 340.4  569.85 340.4  " fill-rule="nonzero" fill="#cccccc" stroke="none" />
    <path d="M 444 460  L 444 372  L 497 332  L 571.2 383.968  L 613.6 356  L 656 383.968  L 656 460  L 444 460  " fill-rule="nonzero" fill="#169bd5" stroke="none" />
  </g>
</svg>