<?xml version="1.0" encoding="utf-8"?>
<svg version="1.1" xmlns:xlink="http://www.w3.org/1999/xlink" width="13px" height="8px" xmlns="http://www.w3.org/2000/svg">
  <g transform="matrix(1 0 0 1 -192 -338 )">
    <path d="M 13 6.22608695652174  C 13 6.36264090177134  12.9489247311828 6.47987117552335  12.8467741935484 6.57777777777778  L 11.508064516129 7.85314009661836  C 11.4059139784946 7.95104669887279  11.2849462365591 8  11.1451612903226 8  C 11.005376344086 8  10.8844086021505 7.95104669887279  10.7822580645161 7.85314009661836  L 6.5 3.7487922705314  L 2.21774193548387 7.85314009661836  C 2.11559139784946 7.95104669887279  1.99462365591398 8  1.85483870967742 8  C 1.71505376344086 8  1.59408602150538 7.95104669887279  1.49193548387097 7.85314009661836  L 0.153225806451613 6.57777777777778  C 0.0510752688172044 6.47987117552335  0 6.36264090177134  0 6.22608695652174  C 0 6.08953301127214  0.0510752688172044 5.97230273752013  0.153225806451613 5.8743961352657  L 6.13709677419355 0.146859903381642  C 6.23924731182796 0.0489533011272139  6.36021505376344 0  6.5 0  C 6.63978494623656 0  6.76075268817204 0.0489533011272139  6.86290322580645 0.146859903381642  L 12.8467741935484 5.8743961352657  C 12.9489247311828 5.97230273752013  13 6.08953301127214  13 6.22608695652174  Z " fill-rule="nonzero" fill="#ffffff" stroke="none" transform="matrix(1 0 0 1 192 338 )" />
  </g>
</svg>